<?xml version="1.0" encoding="UTF-8"?>
<svg id="Layer_1" data-name="Layer 1" xmlns="http://www.w3.org/2000/svg" viewBox="0 0 48.03 48.03">
  <defs>
    <style>
      .cls-1 {
        fill: #7bb229;
      }

      .cls-1, .cls-2, .cls-3 {
        stroke-width: 0px;
      }

      .cls-2 {
        fill: #020202;
      }

      .cls-3 {
        fill: #fcfcfc;
      }
    </style>
  </defs>
  <path class="cls-2" d="m0,0c15.97,0,31.95,0,47.92,0,.09,0,.11.02.11.11,0,15.94,0,31.87,0,47.81,0,.09-.02.11-.11.11-15.94,0-31.87,0-47.81,0-.09,0-.11-.02-.11-.11C0,31.95,0,15.98,0,0Zm24.39,19.76c1.54,0,3.09,0,4.63,0,.71,0,1.18.47,1.18,1.18,0,1.99,0,3.97,0,5.96,0,.1-.03.13-.13.13-1,0-2.01,0-3.01,0-.08,0-.14-.02-.2-.05-1.27-.7-2.53-1.4-3.8-2.1-.06-.03-.12-.07-.2-.07-.89,0-1.78,0-2.67,0-.08,0-.1.02-.1.1,0,.27,0,.54,0,.8,0,.1.03.13.13.13.78,0,1.55,0,2.33,0,.08,0,.15.02.22.06,1.28.71,2.56,1.41,3.83,2.11.07.04.14.05.22.05,1.42,0,2.84,0,4.26,0q.16,0,.16-.15c0-2.3,0-4.59,0-6.89,0-.1,0-.21-.01-.31-.09-.88-.56-1.49-1.37-1.82-.37-.15-.76-.15-1.15-.14-.18,0-.18,0-.15-.18.11-.51.44-.8.9-.8,1.88,0,3.75,0,5.63,0,.39,0,.69.21.84.57.09.22.12.46.12.69,0,1.88,0,3.77,0,5.65,0,.11-.03.14-.14.14-.91,0-1.82,0-2.74,0-.1,0-.14.02-.14.13,0,.25,0,.5,0,.76,0,.11.02.15.14.15,1.25,0,2.5,0,3.75,0,.12,0,.15-.03.15-.15,0-2.21,0-4.41,0-6.62,0-.24-.02-.47-.07-.7-.14-.64-.46-1.16-1.07-1.45-.32-.16-.67-.19-1.03-.19-1.04,0-2.07,0-3.11,0-.78,0-1.57,0-2.35,0-.52,0-.98.18-1.35.55-.37.37-.53.82-.59,1.32-.02.13-.06.14-.17.14-2.03,0-4.05,0-6.08,0-.03,0-.06,0-.08,0-.05,0-.07-.01-.08-.07,0-.09-.02-.18-.04-.27-.14-.67-.47-1.2-1.11-1.5-.32-.15-.66-.18-1.01-.17-1.29,0-2.58,0-3.87,0-.52,0-1.05,0-1.57,0-.56,0-1.05.2-1.43.63-.38.43-.54.95-.55,1.51-.01,2.29,0,4.58-.01,6.87,0,.09.03.11.11.11,1.27,0,2.55,0,3.82,0,.09,0,.11-.03.11-.12,0-.26,0-.52,0-.78,0-.11-.03-.13-.13-.13-.91,0-1.82,0-2.73,0-.12,0-.15-.02-.15-.15,0-1.85,0-3.7,0-5.55,0-.16,0-.31.03-.47.09-.52.36-.9,1.03-.9,1.81,0,3.63,0,5.44,0,.65,0,.91.38,1,.88.02.09,0,.11-.1.11-.22,0-.44-.01-.66.03-1.03.2-1.75,1.07-1.75,2.12,0,2.35,0,4.69,0,7.04,0,.1.02.13.13.13.87,0,1.74,0,2.62,0,1.08,0,2.17,0,3.25,0,.11,0,.13-.03.13-.13,0-.26,0-.51,0-.77,0-.11-.03-.14-.14-.14-1.61,0-3.22,0-4.83,0-.1,0-.13-.02-.13-.13,0-2.02,0-4.03,0-6.05,0-.13.03-.25.07-.37.18-.45.58-.7,1.1-.7,1.54,0,3.09,0,4.63,0Zm-3.44-7.5c0,1.09,0,2.19,0,3.28,0,.17.01.34.05.51.17.92,1.02,1.68,1.95,1.69,1.01.02,2.02,0,3.03,0,.04,0,.07,0,.11,0,1.08-.14,1.87-1.03,1.87-2.12,0-2.24,0-4.48,0-6.72,0-.11,0-.22-.02-.33-.17-1.06-1.05-1.8-2.13-1.8-.9,0-1.79,0-2.69,0-.17,0-.34.02-.5.05-.99.23-1.65,1.07-1.65,2.12,0,1.11,0,2.22,0,3.33Zm8.6-.13c0,.55,0,1.1,0,1.66,0,.12,0,.25.02.37.09.87.86,1.6,1.73,1.62.64.01,1.27,0,1.91,0,.12,0,.23-.01.34-.04.88-.2,1.46-.93,1.46-1.83,0-1.17,0-2.34,0-3.5,0-.09,0-.18-.01-.28-.08-.92-.88-1.65-1.8-1.66-.61,0-1.22,0-1.82,0-.08,0-.17,0-.25.02-.95.17-1.57.91-1.57,1.88,0,.59,0,1.18,0,1.76Zm-10.59,0c0-.62,0-1.23,0-1.85,0-.98-.82-1.81-1.8-1.81-.61,0-1.22,0-1.84,0-.99,0-1.81.83-1.81,1.81,0,1.21,0,2.43,0,3.64,0,.11,0,.22.02.33.12.81.88,1.5,1.7,1.51.66.01,1.31.02,1.97,0,.97-.02,1.76-.84,1.76-1.82,0-.61,0-1.22,0-1.82Zm-3.65,28.74c.64,0,1.27,0,1.91,0,.1,0,.13-.03.12-.13,0-.14,0-.27,0-.41,0-.1-.03-.12-.13-.12-1.05,0-2.1,0-3.16,0-.11,0-.14-.03-.13-.14,0-.23,0-.46,0-.68,0-.11.02-.14.13-.14.84,0,1.67,0,2.51,0,.1,0,.15-.01.14-.13-.01-.13,0-.27,0-.41,0-.09-.02-.12-.12-.12-.8,0-1.6,0-2.4,0-.26,0-.26,0-.27-.27,0-.1.03-.12.12-.12.64,0,1.27,0,1.91,0,.42,0,.85,0,1.27,0,.09,0,.12-.03.11-.11,0-.14,0-.29,0-.43,0-.09-.02-.11-.11-.11-1.28,0-2.56,0-3.84,0-.09,0-.11.03-.11.11,0,1.02,0,2.05,0,3.07,0,.09.02.11.11.11.64,0,1.28,0,1.92,0Zm22.94-5.05c.64,0,1.29,0,1.93,0,.08,0,.1-.02.1-.1,0-.14-.01-.28,0-.42,0-.11-.03-.13-.14-.13-1.06,0-2.11,0-3.17,0-.08,0-.11-.02-.1-.1,0-.24,0-.48,0-.72,0-.12.03-.14.14-.14.84,0,1.69,0,2.53,0,.09,0,.12-.02.11-.11,0-.14,0-.29,0-.43,0-.09-.02-.11-.11-.11-.79,0-1.58,0-2.38,0-.31,0-.3,0-.3-.31,0-.06.01-.08.08-.08.14,0,.29,0,.43,0,.93,0,1.86,0,2.78,0,.09,0,.12-.01.11-.11,0-.14,0-.29,0-.43,0-.09-.02-.11-.11-.11-1.28,0-2.56,0-3.84,0-.09,0-.11.02-.11.11,0,1.02,0,2.05,0,3.07,0,.09.02.11.11.11.64,0,1.28,0,1.92,0Zm-18.01-1.09s0-.02,0-.03c.23,0,.47,0,.7,0,.28,0,.56-.05.8-.21.16-.11.25-.25.25-.45,0-.24,0-.49,0-.73,0-.34-.13-.54-.45-.66-.22-.08-.45-.11-.68-.11-.95,0-1.9,0-2.84,0-.06,0-.08.01-.08.08,0,1.04,0,2.09,0,3.13,0,.07.02.08.09.08.16,0,.31,0,.47,0,.08,0,.1-.02.1-.1,0-.31,0-.62,0-.92,0-.03-.02-.1.04-.09.15,0,.3-.03.44.05.62.34,1.26.68,1.88,1.02.05.03.11.04.17.04.33,0,.66,0,1,0h.15s0-.01,0-.02c-.67-.36-1.35-.71-2.02-1.07Zm22.85,0s.09-.02.12-.02c.2,0,.4,0,.6,0,.29,0,.56-.06.81-.23.15-.1.23-.25.23-.44,0-.25,0-.5,0-.74,0-.33-.13-.52-.44-.64-.22-.09-.44-.12-.67-.12-.96,0-1.92,0-2.88,0-.06,0-.07.01-.07.07,0,1.05,0,2.1,0,3.14,0,.07.03.08.08.08.16,0,.31,0,.47,0,.08,0,.11-.02.11-.1,0-.3,0-.61,0-.91,0-.03-.02-.1.03-.1.15,0,.3-.04.44.05.63.35,1.26.68,1.89,1.03.06.03.11.04.17.04.35,0,.7,0,1.06,0,.03,0,.06.02.08-.02-.68-.36-1.35-.71-2.03-1.08Zm-7.35,6.14s0-.01,0-.02l-2.02-1.07c.26-.03.51-.03.75-.03.25,0,.48-.05.7-.18.2-.11.31-.28.3-.52,0-.23,0-.46,0-.7,0-.34-.15-.54-.47-.66-.23-.09-.48-.11-.72-.11-.93,0-1.86,0-2.78,0-.07,0-.09.02-.09.09,0,.32,0,.63,0,.95,0,.72,0,1.43,0,2.15,0,.09.02.11.11.11.14,0,.28,0,.42,0,.11,0,.12-.03.12-.13,0-.3,0-.6,0-.9,0-.03-.03-.1.04-.09.15,0,.3-.03.44.05.62.35,1.25.68,1.88,1.02.04.02.08.05.13.05.39,0,.78,0,1.18,0Zm-22.63,0s0-.01,0-.02c-.68-.36-1.35-.72-2.03-1.07.25-.02.5-.02.75-.02.27,0,.52-.06.75-.21.17-.11.26-.25.25-.46,0-.26,0-.53,0-.79,0-.22-.09-.38-.27-.5-.2-.13-.42-.18-.65-.19-1.02-.06-2.04-.01-3.06-.03-.07,0-.08.02-.08.08,0,1.04,0,2.09,0,3.13,0,.07.03.08.09.08.16,0,.31,0,.47,0,.08,0,.1-.02.1-.1,0-.31,0-.62,0-.92,0-.03-.02-.1.04-.1.14,0,.29-.03.43.04.63.35,1.27.69,1.9,1.03.04.02.08.04.12.04.39,0,.78,0,1.18,0Zm6.78-1.02c.42,0,.85,0,1.27,0,.1,0,.12.03.12.12,0,.27,0,.54,0,.8,0,.09.03.11.11.1.15,0,.3,0,.44,0,.09,0,.11-.02.11-.11,0-.69,0-1.38,0-2.06,0-.35-.14-.62-.43-.81-.32-.21-.66-.31-1.04-.31-.39,0-.78,0-1.18,0-.38,0-.73.1-1.04.32-.23.16-.37.37-.38.66,0,.75,0,1.5-.01,2.24,0,.06.03.07.08.07.16,0,.32,0,.48,0,.08,0,.1-.01.1-.1,0-.27,0-.54,0-.82,0-.1.03-.12.12-.11.42,0,.83,0,1.25,0Zm4.6-5.05c.42,0,.85,0,1.27,0,.08,0,.11.02.11.11,0,.28,0,.55,0,.83,0,.08.02.1.1.1.15,0,.3,0,.46,0,.09,0,.1-.03.1-.1,0-.72,0-1.43,0-2.15,0-.23-.08-.42-.24-.58-.33-.31-.73-.45-1.18-.46-.42-.01-.84,0-1.26,0-.36,0-.68.1-.98.31-.24.17-.39.39-.4.69,0,.74,0,1.48,0,2.22,0,.06.02.07.08.07.16,0,.32,0,.48,0,.09,0,.1-.03.1-.1,0-.27,0-.54,0-.82,0-.09.02-.12.11-.11.42,0,.85,0,1.27,0Zm-9.13,0c.42,0,.84,0,1.26,0,.1,0,.13.02.13.12,0,.27,0,.54,0,.82,0,.07.02.1.09.09.16,0,.31,0,.47,0,.08,0,.1-.02.1-.1,0-.71,0-1.42,0-2.12,0-.29-.12-.53-.35-.7-.31-.24-.67-.36-1.06-.37-.43,0-.86,0-1.28,0-.35,0-.67.1-.96.3-.25.17-.4.39-.41.69,0,.74,0,1.49,0,2.23,0,.07.04.07.08.07.16,0,.32,0,.48,0,.08,0,.1-.03.1-.1,0-.26,0-.53,0-.79,0-.1.02-.14.13-.14.41,0,.82,0,1.24,0Zm15.54,4.44c0-.29,0-.58,0-.86,0-.3-.13-.5-.4-.62-.19-.08-.39-.13-.59-.14-.59-.05-1.19-.02-1.79-.02-.29,0-.57.05-.84.16-.33.14-.45.32-.45.67,0,.54.01,1.07,0,1.61,0,.33.15.53.43.65.27.12.55.19.85.19.48,0,.96.01,1.44,0,.37,0,.72-.06,1.05-.24.21-.12.31-.3.31-.54,0-.28,0-.57,0-.85Zm-24.24-3.41c.46,0,.92,0,1.38,0,.09,0,.11-.02.1-.11,0-.14,0-.29,0-.43,0-.1-.03-.12-.12-.12-.85,0-1.7,0-2.54,0-.18,0-.35-.01-.52-.07-.17-.06-.21-.12-.21-.29,0-.4,0-.81,0-1.21,0-.2.06-.29.25-.35.19-.06.38-.07.58-.07.82,0,1.63,0,2.45,0,.09,0,.12-.02.11-.11,0-.15,0-.3,0-.44,0-.08-.02-.1-.1-.1-.88,0-1.75,0-2.63,0-.35,0-.68.07-.99.23-.23.12-.35.3-.34.57,0,.56,0,1.12,0,1.68,0,.3.13.49.39.61.3.14.61.18.93.19.42,0,.84,0,1.26,0Zm23.1,0c.46,0,.92,0,1.38,0,.09,0,.11-.02.1-.11,0-.14,0-.29,0-.43,0-.1-.03-.12-.12-.12-.84,0-1.69,0-2.53,0-.18,0-.36,0-.53-.07-.17-.06-.21-.12-.21-.29,0-.4,0-.81,0-1.21,0-.2.06-.29.26-.35.17-.06.35-.07.53-.07.83,0,1.66,0,2.5,0,.08,0,.11-.02.1-.1,0-.15,0-.3,0-.46,0-.08-.02-.09-.09-.09-.88,0-1.76,0-2.64,0-.37,0-.72.07-1.04.27-.19.12-.29.29-.28.52,0,.56,0,1.11,0,1.67,0,.36.11.53.45.67.29.12.6.16.91.16.4,0,.81,0,1.21,0Zm-23.11,5.04h0c.46,0,.93,0,1.39,0,.09,0,.11-.02.1-.11,0-.14,0-.28,0-.42,0-.1-.02-.13-.13-.13-.86,0-1.72,0-2.58,0-.17,0-.34-.02-.51-.08-.12-.04-.18-.13-.18-.26,0-.42,0-.83,0-1.25,0-.17.06-.26.22-.32.16-.06.33-.08.49-.08.86,0,1.71,0,2.57,0,.09,0,.12-.02.11-.11,0-.15,0-.3,0-.44,0-.07-.01-.1-.09-.1-.86,0-1.72,0-2.58,0-.36,0-.72.06-1.04.23-.23.12-.35.3-.34.57,0,.56.01,1.11,0,1.67,0,.33.15.53.43.65.26.11.54.16.82.17.44,0,.88,0,1.32,0Zm2.19-6.69c0,.52,0,1.03,0,1.55,0,.07.01.1.1.1.15,0,.3,0,.46,0,.08,0,.11-.02.1-.1,0-.47,0-.94,0-1.4,0-.09.02-.1.11-.1.85,0,1.7,0,2.56,0,.09,0,.1.03.1.11,0,.47,0,.94,0,1.4,0,.07.01.11.1.1.16,0,.32,0,.48,0,.06,0,.08-.01.08-.07,0-1.05,0-2.1,0-3.14,0-.07-.03-.08-.08-.08-.16,0-.31,0-.47,0-.08,0-.1.02-.1.1,0,.28,0,.56,0,.84,0,.08-.02.1-.1.1-.86,0-1.71,0-2.57,0-.08,0-.1-.02-.1-.1,0-.28,0-.55,0-.83,0-.09-.03-.11-.11-.11-.14,0-.29,0-.43,0-.09,0-.11.02-.11.11,0,.51,0,1.02,0,1.54Zm25.01-1.64c-.64,0-1.29,0-1.93,0-.08,0-.1.02-.1.1,0,.15,0,.3,0,.46,0,.08.02.1.1.1.49,0,.98,0,1.48,0,.11,0,.14.03.13.14,0,.8,0,1.61,0,2.41,0,.08.02.1.1.1.15,0,.3,0,.44,0,.09,0,.11-.02.11-.11,0-.81,0-1.62,0-2.42,0-.09.02-.11.11-.11.5,0,1,0,1.5,0,.08,0,.1-.02.1-.1,0-.15,0-.3,0-.44,0-.09-.02-.11-.11-.11-.64,0-1.28,0-1.92,0Zm-9.41,5.04c-.64,0-1.29,0-1.93,0-.09,0-.11.02-.1.11,0,.14,0,.29,0,.43,0,.09.02.12.11.12.49,0,.98,0,1.46,0,.11,0,.13.02.13.13,0,.8,0,1.6,0,2.4,0,.1.03.12.12.12.14,0,.28,0,.42,0,.09,0,.12-.02.12-.11,0-.8,0-1.61,0-2.41,0-.09.02-.12.12-.12.5,0,1,0,1.5,0,.07,0,.1-.01.09-.09,0-.15,0-.3,0-.46,0-.09-.02-.11-.11-.11-.64,0-1.28,0-1.92,0Zm3.04-12.78c-.5,0-1.01,0-1.51,0-.09,0-.13.02-.12.12,0,.27,0,.54,0,.8,0,.08.02.11.1.11,1.01,0,2.02,0,3.03,0,.07,0,.11-.02.1-.1,0-.28,0-.55,0-.83,0-.09-.03-.1-.11-.1-.5,0-1,0-1.5,0Z"/>
  <path class="cls-1" d="m24.39,19.76c-1.54,0-3.09,0-4.63,0-.52,0-.92.26-1.1.7-.05.12-.07.24-.07.37,0,2.02,0,4.03,0,6.05,0,.11.03.13.13.13,1.61,0,3.22,0,4.83,0,.11,0,.14.02.14.14,0,.26,0,.51,0,.77,0,.1-.02.13-.13.13-1.08,0-2.17,0-3.25,0-.87,0-1.74,0-2.62,0-.11,0-.13-.03-.13-.13,0-2.35,0-4.69,0-7.04,0-1.05.72-1.92,1.75-2.12.22-.04.44-.04.66-.03.09,0,.11-.02.1-.11-.09-.5-.35-.88-1-.88-1.81,0-3.63,0-5.44,0-.67,0-.94.37-1.03.9-.03.15-.03.31-.03.47,0,1.85,0,3.7,0,5.55,0,.13.04.15.15.15.91,0,1.82,0,2.73,0,.1,0,.14.02.13.13,0,.26,0,.52,0,.78,0,.08-.02.12-.11.12-1.27,0-2.55,0-3.82,0-.08,0-.11-.02-.11-.11,0-2.29,0-4.58.01-6.87,0-.56.16-1.08.55-1.51.38-.42.87-.62,1.43-.63.52,0,1.05,0,1.57,0,1.29,0,2.58,0,3.87,0,.35,0,.69.03,1.01.17.64.3.97.83,1.11,1.5.02.09.03.18.04.27,0,.05.03.07.08.07.03,0,.06,0,.08,0,2.03,0,4.05,0,6.08,0,.11,0,.15-.01.17-.14.06-.5.23-.95.59-1.32.37-.37.83-.55,1.35-.55.78,0,1.57,0,2.35,0,1.04,0,2.07,0,3.11,0,.36,0,.7.03,1.03.19.61.3.93.81,1.07,1.45.05.23.07.47.07.7,0,2.21,0,4.41,0,6.62,0,.12-.03.15-.15.15-1.25,0-2.5,0-3.75,0-.12,0-.15-.03-.14-.15,0-.25,0-.5,0-.76,0-.11.03-.13.14-.13.91,0,1.82,0,2.74,0,.11,0,.14-.03.14-.14,0-1.88,0-3.77,0-5.65,0-.24-.03-.47-.12-.69-.14-.36-.44-.57-.84-.57-1.88,0-3.75,0-5.63,0-.46,0-.79.3-.9.8-.04.18-.04.18.15.18.39,0,.78-.01,1.15.14.81.34,1.28.94,1.37,1.82.01.1.01.21.01.31,0,2.3,0,4.59,0,6.89q0,.15-.16.15c-1.42,0-2.84,0-4.26,0-.08,0-.15-.01-.22-.05-1.28-.71-2.56-1.41-3.83-2.11-.07-.04-.14-.06-.22-.06-.78,0-1.55,0-2.33,0-.1,0-.13-.02-.13-.13,0-.27,0-.54,0-.8,0-.08.02-.1.1-.1.89,0,1.78,0,2.67,0,.08,0,.14.04.2.07,1.27.7,2.54,1.4,3.8,2.1.06.04.13.05.2.05,1,0,2.01,0,3.01,0,.1,0,.13-.02.13-.13,0-1.99,0-3.97,0-5.96,0-.71-.47-1.18-1.18-1.18-1.54,0-3.09,0-4.63,0Z"/>
  <path class="cls-1" d="m20.95,12.26c0-1.11,0-2.22,0-3.33,0-1.05.66-1.89,1.65-2.12.16-.04.33-.05.5-.05.9,0,1.79,0,2.69,0,1.08,0,1.96.74,2.13,1.8.02.11.02.22.02.33,0,2.24,0,4.48,0,6.72,0,1.09-.79,1.99-1.87,2.12-.04,0-.07,0-.11,0-1.01,0-2.02.01-3.03,0-.93-.02-1.78-.77-1.95-1.69-.03-.17-.05-.34-.05-.51,0-1.09,0-2.19,0-3.28Zm5.96,0c0-1.13,0-2.26,0-3.38,0-.14-.02-.27-.07-.4-.17-.44-.57-.69-1.09-.69-.48,0-.95,0-1.43,0-.44,0-.88-.02-1.32.01-.58.04-1.01.5-1.01,1.08,0,2.26,0,4.51,0,6.77,0,.56.45,1.06.98,1.07.96.02,1.92,0,2.88,0,.57,0,1.08-.5,1.07-1.12-.02-1.11,0-2.22,0-3.34Z"/>
  <path class="cls-1" d="m29.54,12.13c0-.59,0-1.18,0-1.76,0-.96.62-1.71,1.57-1.88.08-.01.17-.02.25-.02.61,0,1.22,0,1.82,0,.93,0,1.72.73,1.8,1.66,0,.09.01.18.01.28,0,1.17,0,2.34,0,3.5,0,.9-.59,1.64-1.46,1.83-.11.03-.23.04-.34.04-.64,0-1.27,0-1.91,0-.87-.02-1.64-.75-1.73-1.62-.01-.12-.02-.25-.02-.37,0-.55,0-1.1,0-1.66Zm1.03-.02c0,.6,0,1.2,0,1.8,0,.48.35.83.83.83.57,0,1.14-.01,1.7,0,.41.01.87-.29.87-.87,0-1.17,0-2.34,0-3.52,0-.52-.35-.87-.86-.87-.56,0-1.11,0-1.67,0-.53,0-.87.34-.87.87,0,.58,0,1.16,0,1.74Z"/>
  <path class="cls-1" d="m18.95,12.13c0,.61,0,1.22,0,1.82,0,.97-.79,1.8-1.76,1.82-.66.02-1.31.01-1.97,0-.82-.02-1.58-.7-1.7-1.51-.02-.11-.03-.22-.02-.33,0-1.21,0-2.43,0-3.64,0-.99.82-1.81,1.81-1.81.61,0,1.22,0,1.84,0,.98,0,1.8.83,1.8,1.81,0,.62,0,1.23,0,1.85Zm-4.42-.01c0,.6,0,1.2,0,1.8,0,.48.35.83.82.83.57,0,1.14,0,1.72,0,.51,0,.85-.34.85-.85,0-1.18,0-2.37,0-3.55,0-.5-.34-.84-.83-.85-.58,0-1.15,0-1.73,0-.49,0-.83.35-.83.84,0,.59,0,1.18,0,1.78Z"/>
  <path class="cls-3" d="m15.3,40.88c-.64,0-1.28,0-1.92,0-.09,0-.11-.02-.11-.11,0-1.02,0-2.05,0-3.07,0-.09.02-.11.11-.11,1.28,0,2.56,0,3.84,0,.09,0,.12.02.11.11,0,.14,0,.29,0,.43,0,.09-.02.12-.11.11-.42,0-.85,0-1.27,0-.64,0-1.27,0-1.91,0-.09,0-.13.01-.12.12,0,.27,0,.27.27.27.8,0,1.6,0,2.4,0,.09,0,.12.02.12.12,0,.14-.01.27,0,.41.01.12-.04.13-.14.13-.84,0-1.67,0-2.51,0-.12,0-.14.04-.13.14,0,.23,0,.46,0,.68,0,.1.02.14.13.14,1.05,0,2.1,0,3.16,0,.1,0,.13.02.13.12,0,.14,0,.27,0,.41,0,.1-.02.13-.12.13-.64,0-1.27,0-1.91,0Z"/>
  <path class="cls-3" d="m38.24,35.83c-.64,0-1.28,0-1.92,0-.09,0-.11-.02-.11-.11,0-1.02,0-2.05,0-3.07,0-.09.02-.11.11-.11,1.28,0,2.56,0,3.84,0,.09,0,.12.02.11.11,0,.14,0,.29,0,.43,0,.1-.03.11-.11.11-.93,0-1.86,0-2.78,0-.14,0-.29,0-.43,0-.06,0-.08.02-.08.08,0,.31,0,.31.3.31.79,0,1.58,0,2.38,0,.09,0,.12.02.11.11,0,.14,0,.29,0,.43,0,.09-.03.11-.11.11-.84,0-1.69,0-2.53,0-.12,0-.15.03-.14.14.01.24,0,.48,0,.72,0,.09.02.1.1.1,1.06,0,2.11,0,3.17,0,.11,0,.15.02.14.13-.01.14,0,.28,0,.42,0,.08-.02.1-.1.1-.64,0-1.29,0-1.93,0Z"/>
  <path class="cls-3" d="m20.23,34.74c.67.36,1.35.71,2.02,1.07,0,0,0,.01,0,.02h-.15c-.33,0-.66,0-1,0-.06,0-.12-.01-.17-.04-.63-.34-1.26-.68-1.88-1.02-.15-.08-.3-.04-.44-.05-.06,0-.04.06-.04.09,0,.31,0,.62,0,.92,0,.08-.02.1-.1.1-.16,0-.31,0-.47,0-.06,0-.09-.01-.09-.08,0-1.04,0-2.09,0-3.13,0-.07.02-.08.08-.08.95,0,1.9,0,2.84,0,.23,0,.46.03.68.11.32.12.45.32.45.66,0,.24,0,.49,0,.73,0,.2-.08.34-.25.45-.24.16-.51.21-.8.21-.23,0-.47,0-.7,0,0,0,0,.02,0,.03Zm-.4-.67h0c.36,0,.73,0,1.09,0,.09,0,.18,0,.26-.04.1-.03.16-.09.15-.21,0-.08,0-.17,0-.25,0-.26-.02-.29-.28-.34-.04,0-.07-.01-.11-.02-.77-.05-1.53,0-2.3-.02-.07,0-.07.03-.07.09,0,.23,0,.46,0,.7,0,.09.03.11.11.1.38,0,.77,0,1.15,0Z"/>
  <path class="cls-3" d="m43.08,34.74c.68.36,1.36.72,2.03,1.08-.02.04-.06.02-.08.02-.35,0-.7,0-1.06,0-.06,0-.12-.01-.17-.04-.63-.34-1.26-.68-1.89-1.03-.15-.08-.3-.04-.44-.05-.06,0-.03.06-.03.1,0,.3,0,.61,0,.91,0,.09-.02.11-.11.1-.16,0-.31,0-.47,0-.06,0-.08,0-.08-.08,0-1.05,0-2.1,0-3.14,0-.06.02-.07.07-.07.96,0,1.92,0,2.88,0,.23,0,.45.03.67.12.3.12.44.32.44.64,0,.25,0,.5,0,.74,0,.19-.07.33-.23.44-.24.17-.52.22-.81.23-.2,0-.4,0-.6,0-.04,0-.08-.01-.12.02Zm-.41-.66s0,0,0,0c.37,0,.74,0,1.12,0,.1,0,.2-.01.29-.05.07-.03.11-.08.11-.17,0-.11,0-.22,0-.32,0-.2-.03-.24-.23-.28-.05-.01-.11-.02-.17-.03-.76-.05-1.53,0-2.29-.02-.07,0-.08.03-.08.09,0,.23,0,.46,0,.7,0,.08.02.11.11.11.38,0,.76,0,1.14,0Z"/>
  <path class="cls-3" d="m35.73,40.88c-.39,0-.78,0-1.18,0-.05,0-.09-.02-.13-.05-.63-.34-1.26-.68-1.88-1.02-.15-.08-.3-.04-.44-.05-.06,0-.04.06-.04.09,0,.3,0,.6,0,.9,0,.1-.02.13-.12.13-.14,0-.28,0-.42,0-.09,0-.11-.02-.11-.11,0-.72,0-1.43,0-2.15,0-.32,0-.63,0-.95,0-.07.02-.09.09-.09.93,0,1.86,0,2.78,0,.24,0,.49.03.72.11.32.12.46.32.47.66,0,.23,0,.46,0,.7,0,.24-.1.4-.3.52-.22.12-.45.18-.7.18-.25,0-.5,0-.75.03l2.02,1.07s0,.01,0,.02Zm-2.42-1.76s0,0,0,0c.38,0,.76,0,1.14,0,.06,0,.11,0,.17-.02.17-.04.19-.08.19-.25,0-.06,0-.13,0-.19,0-.31-.03-.34-.34-.39-.02,0-.05,0-.07,0-.76-.04-1.51,0-2.27-.02-.06,0-.08.02-.08.08,0,.23,0,.46,0,.7,0,.08.02.11.11.11.38,0,.77,0,1.15,0Z"/>
  <path class="cls-3" d="m13.1,40.88c-.39,0-.78,0-1.18,0-.05,0-.08-.02-.12-.04-.63-.34-1.27-.69-1.9-1.03-.14-.08-.29-.04-.43-.04-.06,0-.04.06-.04.1,0,.31,0,.62,0,.92,0,.08-.02.1-.1.1-.16,0-.31,0-.47,0-.06,0-.09,0-.09-.08,0-1.04,0-2.09,0-3.13,0-.06.01-.08.08-.08,1.02.02,2.04-.03,3.06.03.23.01.45.06.65.19.18.12.27.29.27.5,0,.26,0,.53,0,.79,0,.21-.09.35-.25.46-.23.15-.48.2-.75.21-.25,0-.49,0-.75.02.68.36,1.35.72,2.03,1.07,0,0,0,.01,0,.02Zm-2.41-1.76s0,0,0,0c.38,0,.76,0,1.14,0,.06,0,.13-.01.19-.03.11-.03.18-.1.17-.22,0-.06,0-.13,0-.19,0-.32-.04-.37-.37-.41-.02,0-.03,0-.05,0-.76-.04-1.51,0-2.27-.02-.07,0-.07.03-.07.09,0,.23,0,.46,0,.7,0,.08.03.1.1.1.39,0,.78,0,1.16,0Z"/>
  <path class="cls-3" d="m19.88,39.85c-.42,0-.83,0-1.25,0-.09,0-.12.02-.12.11,0,.27,0,.54,0,.82,0,.08-.03.1-.1.1-.16,0-.32,0-.48,0-.05,0-.08,0-.08-.07,0-.75,0-1.5.01-2.24,0-.29.15-.5.38-.66.31-.22.66-.32,1.04-.32.39,0,.78,0,1.18,0,.38,0,.72.11,1.04.31.29.19.43.45.43.81,0,.69,0,1.38,0,2.06,0,.09-.02.12-.11.11-.15,0-.3,0-.44,0-.08,0-.11-.02-.11-.1,0-.27,0-.54,0-.8,0-.09-.02-.12-.12-.12-.42,0-.85,0-1.27,0Zm0-.66c.34,0,.68,0,1.02,0,.12,0,.29.05.36-.02.06-.07.01-.23.02-.35.01-.18-.07-.3-.21-.4-.18-.13-.39-.18-.61-.18-.36,0-.72,0-1.08,0-.26,0-.48.09-.68.24-.12.09-.19.2-.17.36,0,.08,0,.16,0,.24,0,.09.02.12.11.12.42,0,.83,0,1.25,0Z"/>
  <path class="cls-3" d="m24.47,34.8c-.42,0-.85,0-1.27,0-.09,0-.11.03-.11.11,0,.27,0,.54,0,.82,0,.07-.01.11-.1.1-.16,0-.32,0-.48,0-.06,0-.08-.01-.08-.07,0-.74,0-1.48,0-2.22,0-.3.15-.52.4-.69.29-.2.62-.3.98-.31.42,0,.84-.01,1.26,0,.44.01.85.15,1.18.46.17.16.24.35.24.58,0,.72,0,1.43,0,2.15,0,.07-.01.11-.1.1-.15,0-.3,0-.46,0-.08,0-.1-.02-.1-.1,0-.28,0-.55,0-.83,0-.09-.03-.11-.11-.11-.42,0-.85,0-1.27,0Zm0-.65c.33,0,.66,0,1,0,.13,0,.3.06.37-.02.06-.09.02-.25.02-.39,0-.15-.07-.27-.19-.35-.19-.14-.42-.2-.65-.2-.35,0-.7,0-1.04,0-.24,0-.45.07-.64.2-.16.11-.25.25-.23.45,0,.07,0,.14,0,.22,0,.08.02.1.1.1.43,0,.86,0,1.28,0Z"/>
  <path class="cls-3" d="m15.34,34.8c-.41,0-.82,0-1.24,0-.12,0-.14.04-.13.14,0,.26,0,.53,0,.79,0,.07-.01.11-.1.1-.16,0-.32,0-.48,0-.05,0-.08,0-.08-.07,0-.74,0-1.49,0-2.23,0-.31.16-.53.41-.69.29-.19.61-.29.96-.3.43,0,.86,0,1.28,0,.39,0,.75.13,1.06.37.23.17.35.41.35.7,0,.71,0,1.42,0,2.12,0,.08-.02.1-.1.1-.16,0-.31,0-.47,0-.08,0-.09-.02-.09-.09,0-.27,0-.54,0-.82,0-.1-.03-.12-.13-.12-.42,0-.84,0-1.26,0Zm0-.65c.33,0,.66,0,1,0,.12,0,.29.04.36-.02.08-.07.02-.24.02-.37,0-.16-.06-.28-.18-.37-.2-.15-.42-.21-.66-.21-.35,0-.7,0-1.06,0-.26,0-.48.09-.67.24-.12.09-.19.21-.18.37,0,.08,0,.17,0,.25,0,.08.02.11.1.11.42,0,.85,0,1.27,0Z"/>
  <path class="cls-3" d="m30.88,39.24c0,.28,0,.57,0,.85,0,.24-.1.42-.31.54-.33.19-.68.24-1.05.24-.48,0-.96,0-1.44,0-.29,0-.58-.07-.85-.19-.28-.12-.44-.32-.43-.65.02-.54,0-1.07,0-1.61,0-.35.12-.53.45-.67.27-.11.55-.16.84-.16.6,0,1.19-.03,1.79.02.2.02.4.06.59.14.27.12.4.32.4.62,0,.29,0,.58,0,.86Zm-2.1.99c.3,0,.54,0,.78,0,.17,0,.34-.02.5-.07.12-.04.17-.11.17-.24,0-.41,0-.82,0-1.24,0-.31-.04-.36-.35-.41-.03,0-.06,0-.1-.01-.56-.04-1.13-.01-1.69-.02-.14,0-.28.02-.41.06-.15.05-.19.1-.19.26,0,.44,0,.88,0,1.32,0,.18.04.24.22.29.05.01.11.02.16.03.32.05.65,0,.91.02Z"/>
  <path class="cls-3" d="m6.64,35.83c-.42,0-.84,0-1.26,0-.32,0-.64-.05-.93-.19-.26-.12-.39-.32-.39-.61,0-.56,0-1.12,0-1.68,0-.27.11-.45.34-.57.31-.17.65-.23.99-.23.88,0,1.75,0,2.63,0,.08,0,.1.02.1.1,0,.15,0,.3,0,.44,0,.09-.02.11-.11.11-.82,0-1.63,0-2.45,0-.2,0-.39,0-.58.07-.2.07-.25.15-.25.35,0,.4,0,.81,0,1.21,0,.17.04.23.21.29.17.06.34.07.52.07.85,0,1.7,0,2.54,0,.09,0,.12.02.12.12,0,.14,0,.29,0,.43,0,.08-.02.11-.1.11-.46,0-.92,0-1.38,0Z"/>
  <path class="cls-3" d="m29.74,35.83c-.4,0-.81,0-1.21,0-.31,0-.62-.04-.91-.16-.33-.14-.45-.31-.45-.67,0-.56,0-1.11,0-1.67,0-.23.09-.4.28-.52.32-.2.68-.26,1.04-.27.88,0,1.76,0,2.64,0,.07,0,.1.02.09.09,0,.15,0,.3,0,.46,0,.08-.02.1-.1.1-.83,0-1.66,0-2.5,0-.18,0-.36.01-.53.07-.19.07-.26.15-.26.35,0,.4,0,.81,0,1.21,0,.17.04.23.21.29.17.06.35.07.53.07.84,0,1.69,0,2.53,0,.09,0,.12.02.12.12,0,.14,0,.29,0,.43,0,.08-.02.11-.1.11-.46,0-.92,0-1.38,0Z"/>
  <path class="cls-3" d="m6.63,40.87c-.44,0-.88,0-1.32,0-.28,0-.56-.05-.82-.17-.28-.12-.44-.32-.43-.65.01-.56,0-1.11,0-1.67,0-.27.12-.45.34-.57.33-.17.68-.23,1.04-.23.86,0,1.72,0,2.58,0,.08,0,.1.03.09.1,0,.15,0,.3,0,.44,0,.09-.02.11-.11.11-.86,0-1.71,0-2.57,0-.17,0-.34.02-.49.08-.16.06-.22.15-.22.32,0,.42,0,.83,0,1.25,0,.14.06.22.18.26.16.06.33.08.51.08.86,0,1.72,0,2.58,0,.11,0,.13.03.13.13,0,.14,0,.28,0,.42,0,.08-.02.11-.1.11-.46,0-.93,0-1.39,0h0Z"/>
  <path class="cls-3" d="m8.82,34.18c0-.51,0-1.02,0-1.54,0-.09.02-.11.11-.11.14,0,.29,0,.43,0,.09,0,.12.01.11.11,0,.28,0,.55,0,.83,0,.08.02.1.1.1.86,0,1.71,0,2.57,0,.08,0,.1-.02.1-.1,0-.28,0-.56,0-.84,0-.08.02-.1.1-.1.16,0,.31,0,.47,0,.06,0,.08,0,.08.08,0,1.05,0,2.1,0,3.14,0,.06-.02.07-.08.07-.16,0-.32,0-.48,0-.08,0-.1-.03-.1-.1,0-.47,0-.94,0-1.4,0-.08-.02-.11-.1-.11-.85,0-1.7,0-2.56,0-.08,0-.11.02-.11.1,0,.47,0,.94,0,1.4,0,.08-.02.11-.1.1-.15,0-.3,0-.46,0-.08,0-.1-.03-.1-.1,0-.52,0-1.03,0-1.55Z"/>
  <path class="cls-3" d="m33.83,32.54c.64,0,1.28,0,1.92,0,.09,0,.12.02.11.11,0,.15,0,.3,0,.44,0,.08-.02.1-.1.1-.5,0-1,0-1.5,0-.09,0-.11.02-.11.11,0,.81,0,1.62,0,2.42,0,.09-.02.12-.11.11-.15,0-.3,0-.44,0-.08,0-.1-.02-.1-.1,0-.8,0-1.61,0-2.41,0-.11-.03-.14-.13-.14-.49,0-.98,0-1.48,0-.08,0-.1-.02-.1-.1,0-.15,0-.3,0-.46,0-.08.02-.1.1-.1.64,0,1.29,0,1.93,0Z"/>
  <path class="cls-3" d="m24.41,37.58c.64,0,1.28,0,1.92,0,.09,0,.12.02.11.11,0,.15,0,.3,0,.46,0,.08-.02.09-.09.09-.5,0-1,0-1.5,0-.1,0-.12.03-.12.12,0,.8,0,1.61,0,2.41,0,.1-.03.12-.12.11-.14,0-.28,0-.42,0-.09,0-.12-.02-.12-.12,0-.8,0-1.6,0-2.4,0-.11-.03-.13-.13-.13-.49,0-.98,0-1.46,0-.1,0-.12-.03-.11-.12,0-.14,0-.29,0-.43,0-.08.02-.11.1-.11.64,0,1.29,0,1.93,0Z"/>
  <path class="cls-1" d="m27.45,24.8c.5,0,1,0,1.5,0,.08,0,.11.02.11.1,0,.28,0,.55,0,.83,0,.08-.03.1-.1.1-1.01,0-2.02,0-3.03,0-.09,0-.11-.03-.1-.11,0-.27,0-.54,0-.8,0-.1.03-.12.12-.12.5,0,1.01,0,1.51,0Z"/>
  <path class="cls-2" d="m26.91,12.26c0,1.11-.01,2.22,0,3.34,0,.62-.5,1.13-1.07,1.12-.96,0-1.92,0-2.88,0-.53,0-.98-.51-.98-1.07,0-2.26,0-4.51,0-6.77,0-.58.44-1.04,1.01-1.08.44-.03.88,0,1.32-.01.48,0,.95,0,1.43,0,.52,0,.92.26,1.09.69.05.13.07.26.07.4,0,1.13,0,2.26,0,3.38Z"/>
  <path class="cls-2" d="m30.57,12.11c0-.58,0-1.16,0-1.74,0-.53.34-.87.87-.87.56,0,1.11,0,1.67,0,.52,0,.86.35.86.87,0,1.17,0,2.34,0,3.52,0,.58-.46.88-.87.87-.57-.02-1.14,0-1.7,0-.48,0-.83-.35-.83-.83,0-.6,0-1.2,0-1.8Z"/>
  <path class="cls-2" d="m14.53,12.12c0-.59,0-1.18,0-1.78,0-.49.34-.84.83-.84.58,0,1.15,0,1.73,0,.49,0,.83.35.83.85,0,1.18,0,2.37,0,3.55,0,.51-.34.85-.85.85-.57,0-1.14,0-1.72,0-.47,0-.82-.35-.82-.83,0-.6,0-1.2,0-1.8Z"/>
  <path class="cls-2" d="m19.83,34.07c-.38,0-.77,0-1.15,0-.08,0-.11-.02-.11-.1,0-.23,0-.46,0-.7,0-.05,0-.09.07-.09.77.01,1.53-.03,2.3.02.04,0,.07,0,.11.02.26.05.28.08.28.34,0,.08,0,.17,0,.25.01.12-.05.18-.15.21-.08.03-.17.04-.26.04-.36,0-.73,0-1.09,0h0Z"/>
  <path class="cls-2" d="m42.67,34.07c-.38,0-.76,0-1.14,0-.08,0-.11-.02-.11-.11,0-.23,0-.46,0-.7,0-.06,0-.09.08-.09.76.01,1.53-.02,2.29.02.06,0,.11.01.17.03.19.04.23.09.23.28,0,.11,0,.22,0,.32,0,.08-.03.13-.11.17-.09.04-.19.05-.29.05-.37,0-.74,0-1.12,0,0,0,0,0,0,0Z"/>
  <path class="cls-2" d="m33.31,39.12c-.38,0-.77,0-1.15,0-.08,0-.11-.02-.11-.11,0-.23,0-.46,0-.7,0-.06.02-.08.08-.08.76.01,1.51-.02,2.27.02.02,0,.05,0,.07,0,.31.04.34.08.34.39,0,.06,0,.13,0,.19,0,.17-.03.21-.19.25-.05.01-.11.02-.17.02-.38,0-.76,0-1.14,0,0,0,0,0,0,0Z"/>
  <path class="cls-2" d="m10.68,39.12c-.39,0-.78,0-1.16,0-.08,0-.1-.02-.1-.1,0-.23,0-.46,0-.7,0-.05,0-.09.07-.09.76.01,1.51-.02,2.27.02.02,0,.03,0,.05,0,.33.04.37.08.37.41,0,.06,0,.13,0,.19.01.13-.05.19-.17.22-.06.02-.12.03-.19.03-.38,0-.76,0-1.14,0,0,0,0,0,0,0Z"/>
  <path class="cls-2" d="m19.87,39.2c-.42,0-.83,0-1.25,0-.1,0-.12-.03-.11-.12,0-.08,0-.16,0-.24-.01-.16.05-.27.17-.36.2-.16.42-.25.68-.24.36,0,.72,0,1.08,0,.22,0,.43.06.61.18.14.1.22.22.21.4,0,.12.04.28-.02.35-.07.08-.23.02-.36.02-.34,0-.68,0-1.02,0Z"/>
  <path class="cls-2" d="m24.47,34.15c-.43,0-.86,0-1.28,0-.08,0-.11-.02-.1-.1,0-.07,0-.14,0-.22-.02-.2.07-.34.23-.45.19-.13.4-.21.64-.2.35,0,.7,0,1.04,0,.24,0,.46.06.65.2.12.09.19.2.19.35,0,.13.05.3-.02.39-.06.08-.24.02-.37.02-.33,0-.66,0-1,0Z"/>
  <path class="cls-2" d="m15.35,34.15c-.42,0-.85,0-1.27,0-.09,0-.11-.02-.1-.11,0-.08,0-.17,0-.25-.01-.16.06-.28.18-.37.2-.15.42-.24.67-.24.35,0,.7,0,1.06,0,.24,0,.47.06.66.21.12.09.19.21.18.37,0,.13.05.29-.02.37-.07.06-.24.02-.36.02-.33,0-.66,0-1,0Z"/>
  <path class="cls-2" d="m28.78,40.22c-.27-.01-.59.02-.91-.02-.06,0-.11-.02-.16-.03-.18-.05-.22-.1-.22-.29,0-.44,0-.88,0-1.32,0-.16.04-.21.19-.26.13-.05.27-.06.41-.06.56,0,1.13-.02,1.69.02.03,0,.06,0,.1.01.31.06.35.1.35.41,0,.41,0,.82,0,1.24,0,.13-.06.2-.17.24-.16.05-.33.07-.5.07-.24,0-.48,0-.78,0Z"/>
</svg>