<?xml version="1.0" encoding="UTF-8"?>
<svg id="Layer_1" data-name="Layer 1" xmlns="http://www.w3.org/2000/svg" viewBox="0 0 46.43 46.43">
  <defs>
    <style>
      .cls-1 {
        fill: #281304;
      }

      .cls-1, .cls-2 {
        stroke-width: 0px;
      }

      .cls-2 {
        fill: #f97519;
      }
    </style>
  </defs>
  <circle class="cls-2" cx="23.22" cy="23.22" r="23.22"/>
  <path class="cls-1" d="m23.25,2.31c-11.57-.01-20.93,9.32-20.94,20.89-.03,11.42,9.18,20.88,20.81,20.93,11.62.05,21.01-9.3,21.01-20.91S34.66,2.32,23.25,2.31Z"/>
  <path class="cls-1" d="m15.5,23.4v-6.56s.05-.03.07-.04c1.04-.05,2.09-.15,3.12.07,1.96.42,2.73,1.85,2.55,3.58-.16,1.54-.96,2.41-2.46,2.81-.76.21-2.71.22-3.29.13Z"/>
  <path class="cls-2" d="m25.89,32.56q-1.67,0-2.2-1.58c-.32-.96-.64-1.93-.93-2.9-.1-.36-.28-.46-.64-.46-1.69.02-3.38.02-5.07,0-.43,0-.61.14-.73.54-.35,1.2-.77,2.37-1.08,3.58-.28,1.41-1.9.61-2.91.84-.44.01-.52-.16-.39-.55,1.79-5.5,3.62-11,5.38-16.51.13-.39-.07-.94.24-1.17.36-.26.9-.08,1.35-.09.69-.02,1.39.02,2.08-.01.4-.02.56.12.68.5,1.92,5.74,3.84,11.48,5.78,17.21.45,1.02-1.05.5-1.59.63l.03-.03Zm-6.37-15.52c-.63,2.55-1.37,4.85-2.07,7.16-.12.4-.06.52.36.51,1.15-.02,2.31-.03,3.47,0,.52.01.5-.17.37-.56-.76-2.44-1.4-4.58-2.13-7.11Z"/>
  <path class="cls-2" d="m29.26,26.07c0-1.97.02-3.94-.01-5.91,0-.54.16-.67.67-.64.65.04,1.3.02,1.94,0,.35,0,.49.09.49.47,0,4.03,0,8.06,0,12.09,0,.38-.15.49-.49.48-.67-.01-1.34-.03-2.01,0-.47.02-.59-.15-.59-.59.02-1.97,0-3.94,0-5.91h0Z"/>
  <path class="cls-2" d="m29.05,15.88c-.02-.86.75-1.6,1.69-1.63,1.07-.04,1.83.67,1.84,1.72,0,1.03-.68,1.75-1.71,1.78-1.13.04-1.79-.64-1.82-1.87Z"/>
</svg>