<?xml version="1.0" encoding="UTF-8"?>
<svg id="Layer_1" data-name="Layer 1" xmlns="http://www.w3.org/2000/svg" xmlns:xlink="http://www.w3.org/1999/xlink" viewBox="0 0 54.2 53.95">
  <defs>
    <style>
      .cls-1 {
        fill: url(#linear-gradient-12);
      }

      .cls-1, .cls-2, .cls-3, .cls-4, .cls-5, .cls-6, .cls-7, .cls-8, .cls-9, .cls-10, .cls-11, .cls-12, .cls-13, .cls-14, .cls-15, .cls-16, .cls-17, .cls-18, .cls-19, .cls-20, .cls-21, .cls-22 {
        stroke-width: 0px;
      }

      .cls-2 {
        fill: url(#linear-gradient-17);
      }

      .cls-3 {
        fill: url(#linear-gradient-19);
      }

      .cls-4 {
        fill: url(#linear-gradient);
      }

      .cls-5 {
        fill: url(#linear-gradient-21);
      }

      .cls-6 {
        fill: url(#linear-gradient-6);
      }

      .cls-7 {
        fill: url(#linear-gradient-15);
      }

      .cls-8 {
        fill: url(#linear-gradient-11);
      }

      .cls-9 {
        fill: url(#linear-gradient-5);
      }

      .cls-10 {
        fill: url(#linear-gradient-13);
      }

      .cls-11 {
        fill: url(#linear-gradient-16);
      }

      .cls-12 {
        fill: url(#linear-gradient-22);
      }

      .cls-13 {
        fill: url(#linear-gradient-20);
      }

      .cls-14 {
        fill: url(#linear-gradient-14);
      }

      .cls-15 {
        fill: url(#linear-gradient-2);
      }

      .cls-16 {
        fill: url(#linear-gradient-7);
      }

      .cls-17 {
        fill: url(#linear-gradient-3);
      }

      .cls-18 {
        fill: url(#linear-gradient-9);
      }

      .cls-19 {
        fill: url(#linear-gradient-8);
      }

      .cls-20 {
        fill: url(#linear-gradient-18);
      }

      .cls-21 {
        fill: url(#linear-gradient-10);
      }

      .cls-22 {
        fill: url(#linear-gradient-4);
      }
    </style>
    <linearGradient id="linear-gradient" x1="11.78" y1="45.75" x2="31.7" y2="45.75" gradientUnits="userSpaceOnUse">
      <stop offset="0" stop-color="#ff4308"/>
      <stop offset="1" stop-color="#fb8500"/>
    </linearGradient>
    <linearGradient id="linear-gradient-2" x1="0" y1="26.27" x2="49.82" y2="26.27" xlink:href="#linear-gradient"/>
    <linearGradient id="linear-gradient-3" x1="3.62" y1="8.15" x2="5.44" y2="8.15" xlink:href="#linear-gradient"/>
    <linearGradient id="linear-gradient-4" x1="3.62" y1="12.68" x2="5.44" y2="12.68" xlink:href="#linear-gradient"/>
    <linearGradient id="linear-gradient-5" x1="3.62" y1="17.21" x2="5.44" y2="17.21" xlink:href="#linear-gradient"/>
    <linearGradient id="linear-gradient-6" x1="3.62" y1="21.74" x2="5.44" y2="21.74" xlink:href="#linear-gradient"/>
    <linearGradient id="linear-gradient-7" x1="3.62" y1="30.8" x2="5.44" y2="30.8" xlink:href="#linear-gradient"/>
    <linearGradient id="linear-gradient-8" x1="3.62" y1="35.33" x2="5.44" y2="35.33" xlink:href="#linear-gradient"/>
    <linearGradient id="linear-gradient-9" x1="3.62" y1="39.86" x2="5.44" y2="39.86" xlink:href="#linear-gradient"/>
    <linearGradient id="linear-gradient-10" x1="3.62" y1="44.39" x2="5.44" y2="44.39" xlink:href="#linear-gradient"/>
    <linearGradient id="linear-gradient-11" x1="44.39" y1="39.86" x2="46.2" y2="39.86" xlink:href="#linear-gradient"/>
    <linearGradient id="linear-gradient-12" x1="44.39" y1="44.39" x2="46.2" y2="44.39" xlink:href="#linear-gradient"/>
    <linearGradient id="linear-gradient-13" x1="44.39" y1="8.15" x2="46.2" y2="8.15" xlink:href="#linear-gradient"/>
    <linearGradient id="linear-gradient-14" x1="44.39" y1="12.68" x2="46.2" y2="12.68" xlink:href="#linear-gradient"/>
    <linearGradient id="linear-gradient-15" x1="44.39" y1="17.21" x2="46.2" y2="17.21" xlink:href="#linear-gradient"/>
    <linearGradient id="linear-gradient-16" x1="48.01" y1="41.67" x2="49.82" y2="41.67" xlink:href="#linear-gradient"/>
    <linearGradient id="linear-gradient-17" x1="17.15" y1="36.03" x2="54.2" y2="36.03" xlink:href="#linear-gradient"/>
    <linearGradient id="linear-gradient-18" x1="12.04" y1="13.59" x2="24.19" y2="13.59" xlink:href="#linear-gradient"/>
    <linearGradient id="linear-gradient-19" x1="10.87" y1="21.74" x2="12.68" y2="21.74" xlink:href="#linear-gradient"/>
    <linearGradient id="linear-gradient-20" x1="24.46" y1="7.25" x2="26.27" y2="7.25" xlink:href="#linear-gradient"/>
    <linearGradient id="linear-gradient-21" x1="30.8" y1="12.68" x2="32.61" y2="12.68" xlink:href="#linear-gradient"/>
    <linearGradient id="linear-gradient-22" x1="35.33" y1="16.31" x2="37.14" y2="16.31" xlink:href="#linear-gradient"/>
  </defs>
  <path class="cls-4" d="m18.12,46.2h13.59v-1.81h-13.59v-4.53h6.34v-1.81h-7.25c-.5,0-.91.41-.91.91v9.06h-1.81c-1.5,0-2.72,1.22-2.72,2.72s1.22,2.72,2.72,2.72h5.44v-1.81h-5.44c-.5,0-.91-.41-.91-.91s.41-.91.91-.91h7.25v-1.81h-3.62v-1.81Z"/>
  <path class="cls-15" d="m9.06,27.18h4.53v-1.81h-4.53V4.53h31.7v13.59h1.81V4.53h5.44v22.65h1.81V0h-1.81v2.72h-5.44V0h-1.81v2.72H9.06V0h-1.81v2.72H1.81V0H0v52.54h1.81v-2.72h5.44v2.72h1.81v-2.72h1.81v-1.81h-1.81v-20.83Zm-1.81-22.65v20.83H1.81V4.53h5.44ZM1.81,48.01v-20.83h5.44v20.83H1.81Z"/>
  <rect class="cls-17" x="3.62" y="7.25" width="1.81" height="1.81"/>
  <rect class="cls-22" x="3.62" y="11.78" width="1.81" height="1.81"/>
  <rect class="cls-9" x="3.62" y="16.31" width="1.81" height="1.81"/>
  <rect class="cls-6" x="3.62" y="20.83" width="1.81" height="1.81"/>
  <rect class="cls-16" x="3.62" y="29.89" width="1.81" height="1.81"/>
  <rect class="cls-19" x="3.62" y="34.42" width="1.81" height="1.81"/>
  <rect class="cls-18" x="3.62" y="38.95" width="1.81" height="1.81"/>
  <rect class="cls-21" x="3.62" y="43.48" width="1.81" height="1.81"/>
  <rect class="cls-8" x="44.39" y="38.95" width="1.81" height="1.81"/>
  <rect class="cls-1" x="44.39" y="43.48" width="1.81" height="1.81"/>
  <rect class="cls-10" x="44.39" y="7.25" width="1.81" height="1.81"/>
  <rect class="cls-14" x="44.39" y="11.78" width="1.81" height="1.81"/>
  <rect class="cls-7" x="44.39" y="16.31" width="1.81" height="1.81"/>
  <rect class="cls-11" x="48.01" y="35.33" width="1.81" height="12.68"/>
  <path class="cls-2" d="m52.39,50.22c-.17-.25-.45-.4-.75-.4h-6.87l-1.55-1.55c-.17-.17-.4-.27-.64-.27h-2.42l1.45-5.07c1.54-2.59,2.6-5.44,3.13-8.41l3.02-.71c1.44-.34,2.34-1.79,2-3.23-.22-.92-.91-1.66-1.81-1.95l-2.42-.75.67-6.04c.05-.48-.28-.91-.75-.99l-5.44-.91c-.44-.07-.87.18-1.01.61l-1.6,4.8-2.12-.66c-.14-.95-.56-1.83-1.19-2.55.72-1.32.23-2.97-1.08-3.69-1.32-.72-2.97-.23-3.69,1.08-.07.13-.13.26-.18.4-.1,0-.21,0-.31,0-.5-1.42-2.05-2.16-3.47-1.66-1.42.5-2.16,2.05-1.66,3.47.05.14.11.27.18.4-.3.35-.56.74-.76,1.15l-1.01-1.35c-.52-.69-1.34-1.1-2.21-1.1-1.52,0-2.76,1.23-2.76,2.76,0,.01,0,.03,0,.04.04,2.52,1.12,4.91,2.97,6.62l5.05,4.65c.36,1.44.93,2.81,1.69,4.08,1.63,2.66,3.92,4.19,6.66,4.46v4.57h-2.72c-.24,0-.47.1-.64.27l-1.55,1.55h-5.06c-.39,0-.74.25-.86.62l-.91,2.72,1.72.57.7-2.1h4.78c.24,0,.47-.1.64-.27l1.55-1.55h11.03l1.55,1.55c.17.17.4.27.64.27h6.76l1.54,2.31,1.51-1.01-1.81-2.72Zm-12.4-8.12c-.04.07-.07.14-.09.22l-.18.64-2.88-.72c.53-.61.93-1.33,1.17-2.1.56-1.69,0-3.54-.51-5.16-.35-1.15-.72-2.33-.45-2.87.02-.04.04-.08.05-.12l.57-1.7,5.67.94-.16,1.46c-.37,3.33-1.45,6.54-3.18,9.41Zm7.41-11.74c.46.14.72.63.57,1.09-.09.29-.33.52-.63.59l-2.34.55.32-2.88,2.08.65Zm-6.92-8.51l3.83.64-.77,6.94-5.29-.88,2.23-6.7Zm-14.79-.33c-.38-.33-.42-.9-.1-1.28.33-.38.9-.42,1.28-.1.2.17.31.41.32.67,0,.02,0,.03,0,.05-.02.5.37.92.87.94.05,0,.11,0,.16,0,.52-.07,1.05-.07,1.57,0,.5.07.95-.28,1.02-.77,0-.05.01-.11,0-.16,0-.01,0-.03,0-.05,0-.5.42-.9.92-.89.5,0,.9.42.89.92,0,.26-.12.51-.32.67-.38.33-.42.9-.1,1.28.03.03.06.07.1.1.79.68,1.22,1.55,1.22,2.47,0,2-2.03,3.62-4.53,3.62s-4.53-1.63-4.53-3.62c0-.92.43-1.79,1.22-2.47.38-.33.42-.9.1-1.28-.03-.03-.06-.07-.1-.1h0Zm2.75,16.55c-.72-1.18-1.24-2.47-1.55-3.82-.04-.19-.13-.36-.28-.5l-5.26-4.84c-1.49-1.37-2.35-3.29-2.38-5.31,0-.52.41-.95.93-.96,0,0,0,0,.01,0,.3,0,.58.14.76.38l1.99,2.66c.19,2.85,2.96,5.12,6.33,5.12,3.02,0,5.56-1.82,6.19-4.25l1.65.52-1.43,4.3c-.55,1.18-.1,2.62.37,4.15.44,1.43.9,2.91.52,4.05-.64,1.92-1.73,2.08-1.87,2.1h-.02c-2.48,0-4.49-1.22-5.96-3.6Zm6.9,9.94v-4.27l3.88.97-.94,3.3h-2.94Z"/>
  <polygon class="cls-20" points="22.91 11.14 21.36 12.68 19.02 12.68 19.02 10.34 20.57 8.79 19.29 7.51 18.12 8.68 16.95 7.51 15.66 8.79 17.21 10.34 17.21 12.68 14.87 12.68 13.32 11.14 12.04 12.42 13.21 13.59 12.04 14.76 13.32 16.04 14.87 14.49 17.21 14.49 17.21 16.84 15.66 18.38 16.95 19.66 18.12 18.49 19.29 19.66 20.57 18.38 19.02 16.84 19.02 14.49 21.36 14.49 22.91 16.04 24.19 14.76 23.02 13.59 24.19 12.42 22.91 11.14"/>
  <rect class="cls-3" x="10.87" y="20.83" width="1.81" height="1.81"/>
  <rect class="cls-13" x="24.46" y="6.34" width="1.81" height="1.81"/>
  <rect class="cls-5" x="30.8" y="11.78" width="1.81" height="1.81"/>
  <rect class="cls-12" x="35.33" y="15.4" width="1.81" height="1.81"/>
</svg>