<?xml version="1.0" encoding="UTF-8"?>
<svg id="Layer_1" data-name="Layer 1" xmlns="http://www.w3.org/2000/svg" xmlns:xlink="http://www.w3.org/1999/xlink" viewBox="0 0 43.88 52.35">
  <defs>
    <style>
      .cls-1 {
        fill: url(#linear-gradient);
      }

      .cls-1, .cls-2, .cls-3, .cls-4, .cls-5, .cls-6, .cls-7, .cls-8, .cls-9, .cls-10 {
        stroke-width: 0px;
      }

      .cls-2 {
        fill: url(#linear-gradient-6);
      }

      .cls-3 {
        fill: url(#linear-gradient-5);
      }

      .cls-4 {
        fill: url(#linear-gradient-2);
      }

      .cls-5 {
        fill: url(#linear-gradient-7);
      }

      .cls-6 {
        fill: url(#linear-gradient-3);
      }

      .cls-7 {
        fill: url(#linear-gradient-9);
      }

      .cls-8 {
        fill: url(#linear-gradient-8);
      }

      .cls-9 {
        fill: url(#linear-gradient-10);
      }

      .cls-10 {
        fill: url(#linear-gradient-4);
      }
    </style>
    <linearGradient id="linear-gradient" x1="9.1" y1="14.82" x2="28" y2="14.82" gradientUnits="userSpaceOnUse">
      <stop offset="0" stop-color="#ff4308"/>
      <stop offset="1" stop-color="#fb8500"/>
    </linearGradient>
    <linearGradient id="linear-gradient-2" x1="24.85" y1="19.03" x2="33.11" y2="19.03" xlink:href="#linear-gradient"/>
    <linearGradient id="linear-gradient-3" x1="33.67" y1="22.4" x2="43.88" y2="22.4" xlink:href="#linear-gradient"/>
    <linearGradient id="linear-gradient-4" x1="2.72" y1="17.88" x2="8.92" y2="17.88" xlink:href="#linear-gradient"/>
    <linearGradient id="linear-gradient-5" x1="19.92" y1="33.15" x2="29.2" y2="33.15" xlink:href="#linear-gradient"/>
    <linearGradient id="linear-gradient-6" x1="24.94" y1="42.63" x2="30.64" y2="42.63" xlink:href="#linear-gradient"/>
    <linearGradient id="linear-gradient-7" x1="12.19" y1="34.59" x2="19.37" y2="34.59" xlink:href="#linear-gradient"/>
    <linearGradient id="linear-gradient-8" x1="2.22" y1="41.69" x2="11.95" y2="41.69" xlink:href="#linear-gradient"/>
    <linearGradient id="linear-gradient-9" x1="0" y1="46.91" x2="4.4" y2="46.91" xlink:href="#linear-gradient"/>
    <linearGradient id="linear-gradient-10" x1="23.26" y1="50.19" x2="31.44" y2="50.19" xlink:href="#linear-gradient"/>
  </defs>
  <path class="cls-1" d="m10.16,14.5h4.73c-.28.93-.28,1.91.05,2.84.41,1.17,1.24,2.11,2.35,2.64.17.08.35.13.53.19l-.97-.14c-.48-.07-.92.27-.98.74-.01.08,0,.15.01.22-1.25.58-2.13,1.84-2.13,3.31v.72c0,1.5.91,2.8,2.22,3.36-.08.17-.13.35-.09.55.09.47.55.78,1.02.69l1.56-.3c.47-.09.78-.55.69-1.02,0-.02-.02-.04-.02-.06,1.16-.62,1.95-1.82,1.95-3.22v-.72c0-1.39-.78-2.58-1.92-3.2,0-.3-.15-.57-.39-.72.18.02.35.06.53.06,1.76,0,3.4-1.02,4.16-2.61l.45-.93c.54-1.11.61-2.37.21-3.53-.21-.61-.55-1.16-.97-1.62.03-.22-.03-.43-.15-.6,1.8-.07,3.38-1.3,3.85-3.06l1.03-3.77c.4-1.47-.21-2.37-.79-2.87-.66-.57-1.57-.87-2.45-1.11-.62-.17-1.35-.34-2.04-.34-1.41,0-2.39.76-2.77,2.13l-1.02,3.77c-.29,1.07-.15,2.2.4,3.16.28.49.66.91,1.1,1.25,0,0-.01,0-.02.01-.18-.02-.35-.06-.53-.06-1.58,0-3.05.82-3.89,2.13h-5.71c-.58,0-1.05.47-1.05,1.05s.47,1.05,1.05,1.05Zm5.69,9.81c0-.86.7-1.57,1.57-1.57s1.56.7,1.56,1.57v.72c0,.86-.7,1.57-1.56,1.57s-1.57-.7-1.57-1.57v-.72Zm4.98-17.86l1.02-3.77c.13-.5.3-.58.74-.58s1.03.14,1.49.27c.58.16,1.29.38,1.63.67.12.11.26.23.13.72l-1.03,3.77c-.29,1.08-1.46,1.75-2.54,1.45-.53-.15-.98-.49-1.25-.97s-.35-1.04-.2-1.57Zm-1.08,5.91c.38,0,.75.08,1.1.25.61.29,1.06.81,1.28,1.44s.18,1.32-.11,1.93l-.45.93c-.59,1.22-2.14,1.77-3.37,1.17-.61-.29-1.06-.81-1.28-1.44s-.18-1.32.11-1.93l.28-.58c.11-.12.17-.26.22-.42.44-.83,1.28-1.35,2.22-1.35Z"/>
  <path class="cls-4" d="m26.69,14.87c-.38-.43-1.05-.47-1.48-.09-.43.38-.47,1.05-.09,1.48l6.16,6.94c.21.23.5.35.78.35.25,0,.5-.09.7-.27.43-.38.47-1.05.09-1.48l-6.16-6.94Z"/>
  <path class="cls-6" d="m42.75,21.07l-8.11.58c-.58.04-1.01.54-.97,1.12.04.55.5.97,1.05.97.02,0,.05,0,.08,0l8.11-.58c.58-.04,1.01-.54.97-1.12-.04-.58-.56-1.01-1.12-.97Z"/>
  <path class="cls-10" d="m3.24,22.28c.17.1.35.14.53.14.36,0,.71-.19.91-.52l4.1-6.99c.29-.5.13-1.14-.37-1.44-.5-.3-1.14-.13-1.44.37l-4.1,6.99c-.29.5-.13,1.14.37,1.44Z"/>
  <path class="cls-3" d="m28.15,37.14c.3,0,.61-.13.81-.38.37-.45.3-1.11-.15-1.48l-7.18-5.88c-.45-.37-1.11-.3-1.48.15-.37.45-.3,1.11.15,1.48l7.18,5.88c.19.16.43.24.66.24Z"/>
  <path class="cls-2" d="m28.62,37.95l-3.6,8.56c-.22.53.03,1.15.56,1.37.13.06.27.08.41.08.41,0,.8-.24.97-.64l3.6-8.56c.22-.53-.03-1.15-.56-1.37-.53-.23-1.15.02-1.38.56Z"/>
  <path class="cls-5" d="m18.89,29.83c-.48-.32-1.13-.18-1.45.3l-5.08,7.77c-.32.48-.18,1.14.31,1.45.18.12.38.17.57.17.34,0,.68-.17.88-.48l5.08-7.77c.32-.49.18-1.14-.31-1.45Z"/>
  <path class="cls-8" d="m10.48,39.08l-7.62,3.29c-.53.23-.78.85-.55,1.38.17.4.56.63.96.63.14,0,.28-.03.42-.08l7.62-3.29c.53-.23.78-.85.55-1.38-.23-.53-.85-.78-1.38-.55Z"/>
  <path class="cls-7" d="m2,44c-.25-.52-.87-.76-1.4-.51-.53.24-.75.87-.51,1.4l2.3,4.94c.18.38.56.61.95.61.15,0,.3-.03.44-.1.53-.24.75-.87.51-1.4l-2.3-4.94Z"/>
  <path class="cls-9" d="m30.75,50.31l-6.08-2.21c-.54-.2-1.15.08-1.35.63-.2.54.08,1.15.63,1.35l6.08,2.21c.12.04.24.06.36.06.43,0,.83-.27.99-.69.2-.55-.08-1.15-.63-1.35Z"/>
</svg>