<?xml version="1.0" encoding="UTF-8"?>
<svg id="Layer_1" data-name="Layer 1" xmlns="http://www.w3.org/2000/svg" xmlns:xlink="http://www.w3.org/1999/xlink" viewBox="0 0 34.66 55.3">
  <defs>
    <style>
      .cls-1 {
        fill: url(#linear-gradient);
        stroke-width: 0px;
      }
    </style>
    <linearGradient id="linear-gradient" x1="0" y1="27.65" x2="34.66" y2="27.65" gradientUnits="userSpaceOnUse">
      <stop offset="0" stop-color="#ff4308"/>
      <stop offset="1" stop-color="#fb8500"/>
    </linearGradient>
  </defs>
  <path class="cls-1" d="m.27,11.48c.09.06.18.13.26.2.84.71,1.67,1.43,2.52,2.13,1.93,1.58,3.74,3.3,5.67,4.9.41.34.75.74,1.17,1.05.8.58,1.47,1.29,2.19,1.95.19.17.36.36.52.55.1.12.17.13.3.05.55-.35.6-.63.13-1.1-.35-.35-.62-.63-.36-1.24.3-.71.12-1.51-.06-2.27-.07-.29-.19-.55-.2-.87,0-.25-.29-.49-.46-.73-.04-.05-.12-.09-.07-.2.26.1.48.31.8.27-.05-.15-.18-.17-.28-.24-.3-.19-.49-.41-.62-.77-.22-.57-.25-1.14-.23-1.73.02-.88.44-1.58,1.06-2.17.09-.08.21-.11.32-.16.16-.06.37.03.47-.18.03-.05.83.18.85.24.01.04,0,.09-.02.14-.23.72-.07,1.21.49,1.7.08.07.25.26.04.45-.35.34-.38.74-.21,1.19.07.2.18.39.2.62.01.2.29.28.43.45-.16.09-.27.1-.33-.14-.06.26-.08.44-.04.7.1.51-.16.98-.62,1.28-.24.16-.35.32-.35.65,0,.41-.15.81-.62.96-.1.03-.13.15-.27.17-.12.01-.04.1.02.14.19.12.39.08.53-.06.3-.28.57-.59.51-1.06-.03-.22.09-.37.29-.5.41-.26.64-.69.85-1.12.03-.07.03-.16.16-.2.15.75.42,1.47.57,2.22.06.29-.17.56-.24.86-.14.59-.39,1.15-.41,1.77,0,.34-.31.51-.45.78-.53.99-.86,2.04-1.04,3.15-.26,1.61-.47,3.22-.62,4.84-.12,1.34-.11,2.66.21,3.97.08.32.18.65.38.91.24.33.24.67.23,1.03,0,.24-.09.47-.05.72.02.12-.05.23-.15.31-.33.28-.44.71-.69,1.04-.12.16-.03.51.02.76.06.3.09.6.11.9.13,2.38.55,4.74.65,7.13.02.39-.18.75-.52,1.02-.49.4-1.01.74-1.56,1.05-.23.13-.44.27-.73.27-.12,0-.21.11-.31.18-.34.25-.63.57-1.03.75-.07.03-.13.09-.1.16.13.33.1.69.25,1.01.06.14.15.13.27.14.53.05,1.04-.1,1.56-.16.71-.08,1.39-.29,2.04-.59.48-.22,1-.27,1.5-.33.57-.07.75-.28.83-.89.04-.28-.07-.54-.16-.81-.15-.47-.16-.98-.05-1.47.21-.93.44-1.87.78-2.76.22-.59.45-1.18.69-1.76.23-.54.38-1.1.37-1.7-.02-.72.13-1.43.09-2.15,0-.08-.05-.13-.09-.18-.19-.22-.41-.38-.65-.54-.21-.14-.16-.14-.12-.41.04-.24,0-.5.05-.75.03-.14.08-.26.16-.39.82-1.26,1.5-2.59,1.9-4.05.02-.08,0-.16.07-.23.48.6.51,1.36.79,2.04.3.76.74,1.41,1.37,1.92.1.08.13.16.12.31-.05.41-.11.83.09,1.22.05.11-.01.14-.06.2-.18.26-.46.42-.61.7-.03.06-.09.12-.03.23.33-.53,1.01-.54,1.4-1.06.15,1.82.23,3.58.59,5.3.02,0,.05-.01.07-.02-.08-.71-.16-1.42-.23-2.14-.1-1.07-.24-2.13-.21-3.21,0-.17.08-.24.24-.23.39.01.78.05,1.18-.02.22-.04.51.39.52.71.04,1.04-.03,2.06-.21,3.08,0,.03,0,.06,0,.1.24-.36.34-.74.34-1.16,0-.65.12-1.29.06-1.94,0-.09-.03-.23.07-.28.08-.04.16.07.23.11.32.18.63.37.95.53.24.12.19.31.07.41-.12.1-.12.2-.12.31-.06,1.84-.14,3.68-.38,5.51-.08.66-.29,1.28-.47,1.91.09,0,.09-.08.18-.12-.05.41-.21.78-.3,1.15-.06.27-.21.51-.15.81.03.14-.06.25-.29.23-.43-.03-.8-.3-1.24-.25-.11.01-.11-.1-.14-.17-.52-1.56-1.02-3.13-1.28-4.77-.16-.98-.48-1.93-.63-2.92-.08-.5-.16-1-.23-1.5-.01-.1-.02-.2-.11-.3-.08.79.15,1.5.26,2.22.19,1.23.58,2.42.77,3.65.19,1.22.59,2.37,1,3.52.2.55.04,1.07-.05,1.6-.12.69-.4,1.37-.39,2.06.01.98.22,1.97.71,2.86.13.24.36.32.66.36.46.07.57-.21.75-.48.23-.33.49-.63.62-1.03.23-.71.21-1.4.03-2.11-.13-.5-.24-1.01-.29-1.52-.03-.29.08-.61.01-.9-.08-.36.03-.67.14-.99.26-.8.43-1.61.51-2.45.06-.61.21-1.21.29-1.82.19-1.57.28-3.14.3-4.72,0-.14.02-.27.09-.4.13-.24-.09-.37-.25-.47-.23-.16-.48-.29-.74-.42-.14-.07-.2-.11-.12-.29.19-.39.07-.8-.02-1.19-.04-.17-.04-.28.12-.41.45-.38.54-.94.66-1.46.23-1.02.27-2.07.2-3.11-.14-2-.41-3.98-.79-5.95-.18-.92-.4-1.84-.67-2.74-.06-.2-.19-.27-.38-.26-.16,0-.32,0-.32.25-.17-.54-.56-.99-.37-1.62.14-.45.04-.67-.24-.92.7-.21.89-.82,1.12-1.39.28-.71.62-1.38,1.06-2.01.12-.16.24-.34.3-.52.06-.18.21-.08.31-.16.03-.03.06.12.08.19.06.29.19.56.23.85.14.92.68,1.61,1.22,2.31.15.2.21.37.11.63-.22.58-.16,1.17.03,1.76.03.08.08.15,0,.25-.29.33-.34.74-.34,1.17,0,.54-.01,1.09.14,1.6.13.45.33.89.46,1.34.16.58.32,1.17.48,1.75.4,1.47.94,2.89,1.36,4.36.11.38.4.65.55,1,.01.02.05.06.07.05.39-.17.3.2.39.36.03.06.03.14.04.21.06.55.25,1.03.71,1.37.15.11.21.28.22.47.06.75.3,1.47.41,2.21.02.13.12.25.2.37.05.07.16.09.22.03.14-.15.34-.27.31-.52-.09-.64-.17-1.28-.36-1.91-.03-.1-.08-.2-.17-.29-.05.16.02.31.05.45.13.54.18,1.1.26,1.65.02.12,0,.2-.12.23-.13.03-.23-.03-.25-.16-.11-.72-.23-1.44-.39-2.15-.02-.1,0-.16.12-.15.09,0,.18,0,.27,0,.13,0,.26-.19.38-.06.07.08.06.25.08.38.28,1.96.72,3.9,1.01,5.86.04.28.29.32.39.53.05.11.51-.27.5-.46-.02-.58-.15-1.14-.24-1.71-.26-1.6-.52-3.19-.79-4.79-.02-.12-.07-.23-.11-.35-.04-.12-.06-.26.03-.34.26-.22.24-.51.19-.78-.13-.66-.05-1.27.23-1.89.22-.49.09-1.06.08-1.59,0-.18.02-.32.13-.48.16-.23.28-.48.44-.78.02.14.02.23.03.31.02,0,.04,0,.07,0,0-.1,0-.2,0-.3-.06-.82-.13-1.63-.3-2.43-.19-.88-.24-1.79-.54-2.64-.08-.22-.15-.44-.25-.65-.07-.14-.08-.39-.37-.24-.06.03-.1-.06-.1-.12,0-.36-.14-.69-.07-1.09.1-.55-.21-1.07-.62-1.49-.08-.08-.18-.13-.31-.02-.16.13-.29.11-.3-.14-.04-.57-.21-1.07-.68-1.43-.11-.08-.09-.18-.07-.3.18-1.01.15-2.01-.2-2.99-.12-.33-.19-.68-.31-1.01-.19-.52-.47-.98-.99-1.33.44-.17.84-.35,1.25-.48.23-.07.24-.17.14-.34-.42-.72-.9-1.39-1.51-1.97-.67-.65-1.37-1.25-2.13-1.84.13-.06.22-.1.32-.15-.13-.37-.47-.42-.76-.53-.45-.18-.44-.18-.42-.66.03-.69-.16-1.3-.75-1.73-.35-.25-.72-.21-1.1-.15-.07.01-.12.07-.16.13-.13.2-.24.42-.49.51-.06.02-.14.14-.07.2.14.13.04.25.02.37-.06.44-.06.43-.51.37-.13-.02-.17-.03-.17-.19,0-.33-.18-.59-.48-.76-.1-.06-.21-.11-.16-.25.05-.15.15-.04.23-.02.16.03.2-.13.31-.19.34-.17.73-.6.67-1.05-.05-.39-.07-.79-.38-1.09-.07-.06-.05-.12-.02-.19.17-.42.06-.84-.02-1.25-.06-.28-.07-.58-.27-.82-.25-.31-.46-.61-.88-.74-.41-.13-.77-.4-1.22-.43-.57-.04-1.05.21-1.54.44-.47.23-.8.61-1.1,1.02-.2.27-.06.59-.11.89-.03.17-.06.27-.24.35-.45.2-.46.65-.48,1.06-.01.3.09.58.36.73.27.16.31.43.41.67.09.22.13.46-.05.69-.07.09-.1.22-.13.34-.03.11-.03.23-.2.19-.13-.03-.27-.01-.29-.23-.03-.36-.1-.72-.23-1.06-.16-.42-.5-.72-.79-.7-.39.03-.77.38-.86.82-.06.3-.1.6-.13.9-.01.16-.06.24-.23.23-.57-.02-.96.26-1.17.78-.1.23-.33.24-.51.26-.26.03-.48.14-.69.28-.4.27-.85.5-1.19.84-.32.32-.69.61-.93,1.02-.08.14-.17.31-.35.35-.09.03-.07.09-.07.14,0,.48.38.86.9.87.35,0,.71,0,1.06,0,.06,0,.15-.05.18.05.02.07-.04.13-.1.17-.27.19-.43.48-.64.72-.38.44-.42.96-.56,1.49-.15.6.06,1.1.14,1.64.04.26.13.47.2.72-.11-.12-.23-.23-.34-.35-.44-.48-.94-.88-1.52-1.2-.62-.35-1.14-.84-1.77-1.17-.17-.09-.34-.19-.53-.2-.58-.01-.99-.37-1.42-.69-.11-.08-.19-.2-.37-.12-.12.05-.18-.06-.16-.18.07-.38-.14-.73-.11-1.11,0-.12-.06-.23-.14-.29-.31-.23-.26-.53-.2-.85.02-.11.05-.22.07-.33.04-.23-.04-.42-.28-.46-.21-.04-.45-.08-.56.21-.06.16-.16.31-.17.48,0,.2-.09.17-.23.1-.43-.21-.64-.12-.81.33-.02.07-.03.14-.11.16-.25.07-.29.28-.27.48.03.29-.18.58,0,.86-.21.21-.15.45-.09.72-.31-.26-.63-.53-.94-.79-.3-.26-.6-.51-.96-.7-.32-.17-.51-.1-.69.24-.13.24-.05.5.21.65h0Zm17.83-7.25c-.15.04-.18-.13-.23-.23-.14-.28-.13-.56-.04-.85.02-.08.06-.14.17-.13.11.01.13.08.13.16.01.25.02.5.04.79-.03.07.08.23-.06.26Zm6.48,45.67c-.09.2-.25-.05-.39-.07-.11,0-.22-.04-.33-.04-.3,0-.6-.04-.85.05-.23-.35.22-.56.08-.88-.03-.08.08-.05.14-.05.38.03.74.11,1.04.36.06.05.2.24.17-.05,0-.03,0-.07.04-.06.04,0,.09.03.1.05.05.23.09.49,0,.68Zm.25,1.79c.31.85.07,1.6-.34,2.34-.12.22-.38.43-.38.64,0,.33-.17.36-.39.4-.27.05-.44-.04-.51-.33-.12-.5-.31-.98-.54-1.45-.35-.74-.03-1.41.17-2.09.06-.21.15-.4.07-.7-.24.56-.3,1.1-.4,1.62-.03,0-.06,0-.08-.01-.01-.04-.04-.07-.03-.11.15-.61.31-1.21.4-1.83.01-.08.06-.12.13-.16.2-.1.41-.09.62-.1.13,0,.14.14.18.17.12.07.29.08.44.08.29,0,.41.12.44.41.04.37.08.75.21,1.1ZM14.15,8.58c.08-.17.25-.24.43-.24.82-.02,1.63-.1,2.45.04.08.01.16.02.23.06.14.08.23.24.22.37,0,.15-.2.08-.3.08-.45.02-.91.01-1.36.03-.06,0-.23.02-.17.08.18.2-.05.11-.08.12-.23.05-.49.04-.66.19-.41.35-.95.49-1.35.85-.02-.02-.04-.03-.06-.05.22-.51.43-1.02.65-1.52Zm3.19-2.56c-.02.1.06.24-.13.25-.17.01-.19-.09-.2-.23-.01-.17-.04-.34-.14-.49-.06-.08-.05-.24-.21-.21-.14.03-.21.13-.23.25-.06.33-.19.66-.1,1.01.05.19-.05.28-.24.28-.17,0-.36-.31-.31-.56.07-.4.08-.8.2-1.19.12-.39.34-.53.72-.46.23.04.36.17.44.36.11.27.21.55.2.85,0,.04,0,.08,0,.12Zm1.18,2.14c.1.18.15.39.21.59.01.04.08.1,0,.12-.24.07-.49.05-.72,0-.15-.02-.21-.17-.2-.33,0-.09-.06-.12-.11-.16-.26-.16-.54-.25-.85-.27-.51-.03-1.04.02-1.54-.06-.39-.06-.72,0-1.12.16.05-.24.08-.41.12-.59.15-.65.42-.87,1.07-.93.14-.01.21,0,.24.17.04.23.19.43.46.38.23-.04.51-.09.47-.46-.02-.19.08-.29.3-.25.35.06.7.09,1.05.11.17.01.22.07.24.23.06.44.15.87.38,1.27Zm.55-.17c.29.31.16.61.09.93-.03.16-.11.11-.17.01-.04-.07-.09-.14-.12-.21-.24-.64-.4-1.31-.51-1.99-.01-.09,0-.19,0-.36.28.58.32,1.19.71,1.61Zm-.3,5.71c0-.25,0-.42,0-.6,0-.44,0-.45.41-.22.81.45,1.62.91,2.44,1.36.25.14.5.27.76.38.43.18.77-.11,1.14-.25.24-.09.45-.28.59.11.01.04.08.07.12.08.36.13.46.39.42.74-.02.15,0,.3-.01.45-.01.21.05.43-.23.56-.2.09-.33.34-.58.35-.29.02-.58.05-.88.04-.22,0-.43,0-.63-.15-.86-.62-1.75-1.22-2.75-1.59-.68-.25-1-.62-.78-1.27Zm1.82,7.93c.01.23-.07.3-.31.31-.83.02-1.62-.17-2.42-.33-.29-.06-.56-.16-.83-.29-.12-.06-.2-.12-.16-.27.09-.3.17-.6.24-.91.06-.26.17-.34.44-.22.71.31,1.46.46,2.23.51.24.02.53-.13.7.04.15.17.06.47.11.71,0,.15,0,.3,0,.45Zm-1.6-2.16c-.21-1.45-.35-2.91-.31-4.38,0-.23.07-.25.27-.16,1.01.46,2.02.93,2.89,1.63.27.21.57.34.91.37.18.01.17.09.11.21-.1.21-.08.38.11.53.09.07.15.16.22.25.12.17,0,.71-.19.72-.52.02-.68.33-.69.78,0,.03-.02.06-.03.08-.09-.01-.03-.11-.14-.16,0,.22-.12.21-.28.2-.41-.03-.84-.03-1.11.32-.16.2-.29.24-.5.19-.1-.02-.19-.02-.3,0-.52.09-.9-.14-.97-.6Zm2.59.24c.34,0,.79.33.86.67.12.56.05,1.15.23,1.7.04.13.04.28.05.42.01.21-.04.35-.27.43-.37.12-.75.14-1.13.12-.13,0-.16-.08-.2-.18-.27-.63-.29-1.31-.39-2.15-.06-.38.26-1,.87-1.01Zm3.5-9.08c.25.48.2,1.01.31,1.53-.16-.12-.28-.26-.43-.39-.36-.32-.66-.67-1.14-.88-.83-.36-1.66-.72-2.48-1.19.29-.19.58-.25.92-.2.92.15,1.79.48,2.68.75.13.04.21.09.14.23-.02.04-.05.08-.02.14Zm-.02,1.57c.26.11.18.32.18.47-.08-.12-.26-.25-.18-.47Zm.27,1.43c-.14.25-.26.48-.4.72-.09.16-.22.17-.36.09-.1-.05-.18-.12-.28-.17-.15-.08-.15-.15-.03-.27.27-.26.47-.58.6-.93.02-.06.02-.17.1-.15.07.01.13.09.17.15.06.09-.05.1-.1.15-.06.05-.19.13-.14.16.21.13,0,.3.09.46.09-.1.15-.23.34-.2Zm-6.53-1.45c.31-.84.19-1.8.84-2.55.16-.19.31-.22.44-.13.42.28.9.39,1.36.55.78.27,1.48.7,2.27.94.24.07.42.22.58.42.16.2.31.4.53.54.06.04.12.09.08.2-.08.22-.14.44-.2.67-.1.39-.36.7-.57,1.03-.21.33-.65.36-1,.52-.15.07-.33.1-.5.16-.07-.02-.14-.04-.2-.07-.1-.05-.2-.1-.29-.16-1-.65-2.07-1.19-3.11-1.77-.14-.08-.29-.16-.22-.34Zm3.39-6.42c.13.22,0,.35-.15.45-.59.4-1.18.8-1.87.98-.34.09-.72.07-.99-.22-.27-.3-.35-.69-.43-1.08.15.46.67.55.91.88.04-.25.27-.17.4-.14.51.13.77-.19,1.03-.51.19-.23.36-.48.56-.7.06-.07.13-.21.27-.12.12.08.21.17.1.33.1.02.13-.1.21-.06-.01.07-.06.15-.04.2Zm.32-2.27s-.06.1-.1.14c-.2.18-.28.41-.35.65-.07.23-.04.48-.19.69-.05.07-.08.19-.18.18-.15-.02-.04-.15-.07-.22-.07-.18-.05-.36,0-.53.11-.37.16-.75.26-1.12.11-.43.41-.74.74-1.03.04.43-.15.82-.11,1.24Zm-.25,2.93c.18.27,0,.41-.18.49-.15.07-.28.17-.38.3-.13.16-.28.26-.45.34-.51.26-1.05.4-1.61.51-.14.03-.3.03-.35-.1-.1-.25-.28-.46-.3-.72.46.13.88.32,1.35.15.69-.24,1.33-.56,1.92-.98Zm-3.75-4.16c.16.23.29.42.41.61.18.28.46.38.76.39.37,0,.73,0,1.09-.13.34-.12.67-.26,1.03-.35-.17.33-.24.68-.35,1.01-.12.34-.2.72-.16,1.07.06.55-.26.89-.54,1.27-.09.12-.2.24-.35.28-.54.17-1.27-.16-1.55-.65-.46-.82-.44-1.71-.43-2.6,0-.28-.06-.57.08-.9Zm4.34-.37c-.36.09-.64.33-.95.52-.27.16-.54.31-.86.37-.5.08-1.03.01-1.51.22-.09.04-.16-.03-.21-.09-.28-.29-.55-.59-.7-.97-.02-.05-.02-.1-.04-.15-.05-.17.12-.22.17-.33.32-.7,1.22-1.25,1.97-1.15.23.03.39-.14.63-.04.45.2.88.4,1.25.72.23.2.23.51.37.75.03.06-.05.13-.12.14Zm.31,1.03c-.01.12-.01.24-.03.36-.02.15-.14.12-.23.1-.07-.02-.22.05-.2-.11.05-.35.11-.69.18-1.04,0-.05.03-.1.09-.1.06,0,.08.06.09.1.06.22.11.45.1.68Zm-.93,1.95s0-.08-.02-.12c-.08-.46.15-.97.54-1.2.17-.1.5-.03.55.16.11.44.27.9-.08,1.31,0,0,0,0,0,0,0,0,0,0,0,0h.01c-.18.39-.24.44-.66.36-.27-.05-.34-.28-.34-.53Zm.74,2.11c-.32.29-.55.67-.88.94-.61.51-1.26.98-2.02,1.25-.16.06-.33.11-.48.19-.17.08-.22.04-.2-.14,0-.06,0-.12,0-.23.01-.11.05-.27.05-.43,0-.31.16-.37.42-.33.17.02.34,0,.51-.06.87-.32,1.63-.83,2.3-1.47.09-.08.18-.14.26-.07.09.09.17.24.05.35Zm3.17.51c0,.14-.06.17-.19.13-.19-.05-.32-.15-.34-.37-.02-.17-.05-.34-.11-.5-.07-.2-.23-.3-.45-.3-.2,0-.27.15-.34.3-.08.18-.11.37-.1.56.02.32-.12.61-.1.93,0,.16-.1.2-.24.21-.13,0-.21-.05-.2-.2.01-.34-.1-.68-.04-1.05-.07-.32.08-.63.18-.95.09-.27.23-.53.53-.56.43-.04.88.08,1.1.45.23.39.31.87.3,1.35Zm-1.08-.6c.18.04.35.16.36.38,0,.11-.04.15-.15.12-.29,0-.45-.09-.43-.24.02-.13.05-.31.21-.27Zm1.18,2.24c-.18.23-.36.47-.54.7-.31.4-.34.41-.78.2-.08-.04-.17-.07-.26-.09-.67-.19-1.34-.37-2.01-.56-.49-.14-.95-.13-1.39.16-.08.05-.17.12-.28.08-.25-.08-.49-.15-.78-.24.32-.17.65-.23.91-.44.62-.51,1.29-.98,1.8-1.61.09-.12.19-.17.36-.13.49.1.49.08.5.59,0,.13,0,.26,0,.39-.02.31.17.57.44.62.22.04.44-.15.54-.44.09-.25.02-.5.08-.78.81.27,1.64.45,2.5.83-.51.13-.82.4-1.08.73Zm3,4.05c-.4.16-.4.17-.57-.23-.02-.05-.04-.09-.07-.14-.55-.84-1.14-1.65-1.83-2.38-.11-.12-.26-.33-.41-.19-.1.1.13.24.22.34.74.78,1.41,1.61,1.98,2.53.04.07.12.13.08.22-.03.08-.12.05-.18.06-.04,0-.07,0-.1-.01-.83-.19-1.65-.39-2.46-.66-.22-.07-.35-.28-.36-.52-.02-.42-.12-.82-.18-1.23-.04-.27-.24-.6.23-.71.02,0,.04-.05.05-.07.32-.52.74-.96,1.21-1.34.16-.13.27-.14.44,0,.75.6,1.43,1.29,2.12,1.96.5.48.91,1.02,1.31,1.59.11.16.09.23-.1.3-.47.16-.93.33-1.39.51Zm2.34,7.61c0,.05-.05.11-.07.16-.21.46-.59.72-1.05.91-.1.04-.23.04-.29.18-.09.22-.32.25-.48.23-.13-.01-.06-.22-.07-.35,0-.05,0-.11.01-.15.17-.43.15-.87.08-1.31-.03-.17.02-.24.17-.32.46-.26.88-.58,1.27-.99.39.48.4,1.07.44,1.64Zm1.08,1.4c-.12.28-.22.59-.52.76-.15.09-.25.11-.3-.11-.06-.31-.14-.61-.27-.9-.02-.05-.06-.11.01-.15.4-.25.61-.65.78-1.12.37.5.51.99.29,1.52Zm.86,7.76c.1.03.16-.06.2.02.04.07-.02.11-.06.15-.3.27-.66.34-1.04.31-.22-.02-.35-.12-.39-.35-.12-.67-.27-1.33-.39-1.99-.12-.64-.21-1.28-.32-1.95.53.03.93-.19,1.25-.56.22-.24.41-.5.54-.8.06-.14.13-.34.27-.32.13.02.12.24.14.37.16.86.29,1.73.46,2.59.09.46.22.94.08,1.44-.13.45-.35.81-.74,1.1Zm-1.11-4.37c.19-.23.28-.55.56-.71-.1.3-.26.56-.56.71Zm.78,9.47c.03.28.03.55.1.8.5,1.74.73,3.54,1.08,5.32.04.21.07.42-.05.62-.04.08-.06.18-.18.18-.1,0-.17-.07-.22-.15-.11-.15-.1-.33-.12-.5-.28-1.87-.68-3.72-.93-5.6-.05-.35.02-.51.31-.68Zm-2.23-1.31c.18.04.35.1.53.13.17.03.38.11.5.05.42-.23.93-.29,1.26-.71.25.64.17,1.18-.24,1.68-.13.16-.31.07-.41.15-.2.15-.4.19-.63.14-.65-.12-1.04-.68-1-1.43Zm-1.85-4.52c.9.44,1.8.65,2.71-.04.01.1,0,.19.03.28.11.33-.07.74.3,1.01.12.09.64.32.81.29.29-.05.5-.23.76-.4,0,.28-.01.53,0,.77.05.83-.37,1.44-.91,2-.21.21-.48.33-.77.42-.48.13-1.03-.21-1.12-.69-.08-.41-.17-.81-.26-1.22-.13-.59-.26-1.18-.48-1.75-.06.22,0,.43.04.63.19.79.38,1.57.57,2.36.02.1.06.2-.08.26-.12.05-.17-.03-.23-.1-.28-.35-.54-.71-.65-1.15-.22-.83-.43-1.66-.73-2.47-.02-.06-.08-.12,0-.19Zm-.35-.79c.08-.14.16.02.24.05.14.06.28.11.42.18.74.36,1.42.24,2.08-.21.05-.03.08-.15.16-.07.08.08,0,.14-.05.21-.19.26-.54.26-.77.5-.16.17-.53.13-.83.19-.42-.07-.83-.23-1.2-.48-.12-.08-.12-.25-.06-.36Zm-.83-6.07s0,.01,0,.02c0,0,0-.01,0-.02h0s-.04-.04-.01-.06c0,0,.02,0,.03,0,.16.1.33.21.49.31h0s0,0,0,0c0,0,0,0,0,0,0,0,0,0,0,0,.14.06.29.1.44.08.88-.14,1.76-.3,2.46-.99.13.46.28.89.37,1.34.05.22.12.25.32.18.3-.11.51-.34.76-.6.07.33.13.6.19.88.19.96-.49,2.01-1.44,2.23-.25.06-.33.18-.27.43.13.56.24,1.13.35,1.69.01.07.06.17,0,.19-.26.08-.41.31-.66.41-.69.24-1.32.16-1.95-.19-.22-.12-.36-.26-.42-.51-.26-1.01-.54-2.01-.8-3.02-.14-.52-.16-1.06-.14-1.6.01-.28.06-.56.31-.75Zm-.06-2.13s.07-.08.12-.03c.28.26.62.16.87.17.45-.03.69.14.73.54.01.11,0,.21-.05.32-.1.24-.18.48-.16.76.03.33-.08.45-.4.44-.47-.02-.91-.18-1.13-.63-.25-.51-.3-1.04.01-1.55Zm-2.36-7.2c.08-.05.09.07.18.05-.05-.12-.09-.23-.16-.4.29.13.5.28.76.33.54.12,1.08.26,1.62.4.41.11.82.19,1.22-.04.23-.13.26-.01.23.2-.06.47-.38.89-.2,1.37.38-.28.65-.65.62-1.21.26.3.44.59.58.96.3.76.37,1.55.5,2.33.05.3.13.65.04.89-.15.41-.24.83-.38,1.24-.09.27-.25.45-.48.55-.46.2-.95.35-1.45.41-.35.04-.57-.21-.78-.45-.03-.04-.07-.1-.03-.13.19-.15.02-.2-.07-.27-.1-.09-.2-.17-.29-.27-.59-.63-.91-1.4-1.11-2.23-.18-.75-.3-1.51-.09-2.28.06-.23.12-.31.35-.15.47.33.98.57,1.59.58-.84-.31-2.81-1.69-2.67-1.87Zm-.08,2.89c-.15.03-.3.06-.44.1-.06.01-.14.04-.13-.05.05-.52-.04-1.06.22-1.54.14-.26.36-.48.46-.78.01-.04.04-.11.1-.08.05.02.1.07.13.12.05.08-.04.06-.07.08-.24.25-.25.44-.07.64.13-.07.11-.26.28-.32.02.19-.18.3-.17.52.09-.12.15-.2.22-.27-.12.28-.11.56-.04.86.1.44-.04.62-.5.72Zm-2.47,4.11c-.43,0-.52-.13-.51-.55.01-.39.12-.6.52-.61.06,0,.12-.03.17-.06.22-.1.47-.67.35-.85-.11-.17-.23-.36-.44-.44-.05-.02-.12-.03-.11-.08.06-.16.15-.3.18-.47.02-.09.14-.07.21-.08.52-.04,1-.16,1.37-.57.06-.06.13-.1.22-.07.2.05.39,0,.62-.12-.13.36-.42.52-.57.78-.47.79-.89,1.61-1.2,2.47-.15.43-.38.64-.83.65Zm.27,1.44c0,.06-.21.14-.33.16-.12.02-.09-.11-.1-.18-.05-.29-.07-.58-.15-.86-.07-.26.03-.33.26-.31.12-.02.19,0,.25.12.19.35.09.72.08,1.08Zm.53,14.82c-.23.05-.38-.05-.39-.33,0-.37-.02-.75-.06-1.12-.12-1.05-.27-2.11-.39-3.16-.2-1.82-.4-3.64-.83-5.42-.03-.12-.04-.2.11-.29.76-.44,1.35-1.05,1.66-1.89.13-.35.28-.68.42-1.03.02,0,.04,0,.07,0,.11.42.22.84.34,1.25.29,1.02.47,2.06.62,3.11.06.48.09.96.17,1.43.12.69.15,1.38.23,2.07.06.47-.02.95.02,1.42.07.93,0,1.82-.42,2.66-.03.06-.12.12-.05.19.2.18,0,.27-.09.36-.04.04-.12.06-.16.12-.32.41-.78.53-1.26.63Zm-1.77-10.44c.22-.36.45-.57.85-.7-.27.3-.48.53-.85.7Zm.16,1.64c.06.3.14.53.11.78-.06-.23-.14-.46-.11-.78Zm.97,7.66c.03.28.11.55.07.9-.14-.34-.1-.62-.07-.9Zm-9.54,12.94c.47.16.95.32,1.42.48.05.02.17-.01.15.1-.03.17.13.15.17.14.43-.16.39.19.46.41.03.09.03.19.07.26.11.19,0,.26-.15.34-.47.28-1.01.26-1.52.38-.14.03-.3.04-.38.15-.11.15-.24.17-.39.18-.52.02-1.02.13-1.48.37-.58.3-1.2.24-1.82.25-.08.01-.11-.05-.14-.13-.05-.16.02-.39-.06-.48-.17-.21-.02-.23.1-.29.08-.04.16-.08.24-.12.43-.22.77-.56,1.25-.73.72-.26,1.41-.62,1.9-1.25.05-.06.09-.09.18-.06Zm.51-.74c.08-.03.08-.22.19-.11.23.23.58.2.82.39.18.15.49.23.46.58.04.18-.04.19-.21.18-.45-.03-.88-.12-1.26-.36-.09-.06-.29.03-.27-.17.02-.2.05-.42.27-.5Zm-.06-5.13c.03-.1.03-.2.03-.3,0-1.52-.02-3.04-.03-4.55,0-.21.04-.28.25-.2.23.09.48.09.72.06.16-.01.25.01.23.21-.03.35-.06.71-.06,1.06,0,.65,0,1.3,0,1.93.06-.91.11-1.82.16-2.73,0-.08-.03-.18.04-.22.09-.05.14.05.2.1.51.34.97.77,1.53,1.03.25.11.35.24.35.52,0,1.16.01,2.31-.43,3.41-.17.41-.32.82-.48,1.24-.41,1.08-.62,2.21-1,3.3-.05.16-.13.34-.31.28-.27-.09-.55-.12-.82-.2-.17-.05-.25-.13-.25-.32,0-.32-.04-.65-.06-.97-.11-1.62-.44-3.21-.49-4.83-.03-.84-.08-1.68-.22-2.51-.08-.51.18-.84.54-1.21.01,1.67-.13,3.29.11,4.9Zm.89-17.61c.12.24.28.46.17.81-.31.98-.43,2.02-.61,3.03-.34,1.92-.4,3.86-.27,5.81.01.18.05.5-.06.52-.22.03-.36-.21-.48-.4-.03-.05-.05-.11-.07-.17-.35-1.08-.45-2.19-.34-3.32.1-1.12.18-2.24.35-3.35.15-1.06.23-2.13.53-3.17.09-.31.18-.61.39-.88.2.37.21.76.39,1.11Zm-.38,5.57c.03.5-.02.99-.15,1.47.05-.49.1-.98.15-1.47Zm.19-1.15c-.04.29-.01.59-.12.87,0-.3.02-.59.12-.87Zm.62-3.69c-.18.62-.04,1.3-.37,1.88.23-.61.11-1.28.37-1.88Zm.03-2.95c.19.11.42.19.66.18.22,0,.51-.11.53-.25.04-.26.16-.49.2-.74.02-.15.06-.17.21-.1,1.05.53,2.18.66,3.33.6.21-.01.3.02.3.23,0,.07.03.14.04.21.08.5.3.72.8.79.12.02.25.02.35.07.28.12.53.04.77-.11.25-.15.4-.33.31-.65-.04-.15-.02-.32-.03-.48,0-.18.02-.14.14-.21.28-.17.27.06.32.2.09.26.17.52.25.78.04.13.13.27.06.41-.21.45-.38.94-.75,1.27-.4.36-.67.84-1.11,1.15-.06.05-.02.11-.02.16,0,.8.16,1.59.28,2.37.34,2.29.65,4.58.86,6.89.03.37.03.75.2,1.1.04.07.09.17-.03.24-.04.03-.1.05-.06.11.03.05.08.03.14.01.15-.05.26-.19.42-.17.36.03.71.03,1.04-.11.14-.06.19-.01.19.12,0,.36.02.73.03,1.09,0,.05,0,.14-.09.13-.07,0-.09-.08-.09-.14.01-.18.04-.36.04-.54,0-.18.01-.37-.2-.53.02.16.08.29.04.39-.06.18-.06.41-.21.52-.1.07-.2-.12-.31-.18-.46-.23-.87.12-1.3.02-.03.15.13.08.12.18-.22.05-.5-.1-.65.18-.01.02-.06.05-.1,0-.11-.15-.27-.27-.24-.51.01-.11,0-.26-.05-.46-.12.24-.15.42-.08.59.05.14.05.28.04.42,0,.04-.06.08-.1.1-.04.03-.07-.01-.09-.05-.08-.12-.09-1.08.03-1.16.24-.15.02-.2-.05-.26-.64-.57-1.17-1.24-1.49-2.04-.55-1.38-.77-2.84-1.01-4.3-.15-.91-.17-1.83-.23-2.75,0-.09-.03-.24.02-.26.2-.11.1-.24.03-.35-.06-.08-.06-.15-.04-.22.06-.23-.01-.45-.06-.72-.14.28-.1.55-.19.79-.37-.13-.59-.46-.98-.64.15.42.48.58.76.78.12.09.22.15.22.33,0,.83.14,1.65.19,2.48.05.82.36,1.61.1,2.46-.16.53-.26,1.08-.46,1.6-.35.93-.9,1.76-1.24,2.7-.01.04-.03.07-.08.08-.22.04-.27.22-.3.39-.04.23-.04.46-.07.69-.06.54-.11.56-.56.29-.07-.04-.14-.08-.21-.13-.09-.06-.13-.19-.09-.26.15-.29.16-.28-.02-.59-.06.12,0,.27-.11.33-.09.06.07.2-.08.21-.11,0-.21-.06-.25-.19-.03-.11-.1-.12-.19-.07-.24.12-.49.08-.74.09-.28,0-.42-.13-.37-.4.05-.28.06-.56.15-.83.08-.23.09-.47-.19-.6-.09-.04-.17-.13-.21-.28.13.06.22.12.32.16.35.15.46.08.48-.3.02-.3.05-.61.03-.91-.13-1.75.03-3.48.3-5.2.12-.74.25-1.47.43-2.2.11-.47.14-.96.3-1.42.02-.04.03-.13,0-.14-.25-.2-.26-.52-.38-.78-.23-.46-.3-.97-.26-1.48.01-.12-.05-.43.3-.22h0Zm.53-3.12c.06-.14.14-.19.3-.19.26.02.49.12.69.28.09.07.15.16.11.29-.24.78-.32,1.6-.62,2.37-.09.22-.19.31-.42.26-.09-.02-.18-.04-.27-.05-.27-.05-.42-.18-.39-.49.07-.71.27-1.38.45-2.07.01-.05.03-.12.13-.11.05.1-.03.16-.04.24-.02.16.1.28.21.19.17-.14-.03-.28-.02-.42,0-.02-.02-.07-.04-.07-.17-.02-.15-.11-.1-.23Zm.22-.39c-.08-.33-.15-.65-.23-.99.36.2.49.75.23.99Zm-.49-2.18c.17-.31.21-.63.09-.96-.05-.13,0-.18.12-.22.74-.29,1.5-.54,2.27-.75.24-.06.41.1.39.34-.1,1.41.08,2.81.23,4.2.04.33,0,.73.52.77-.54-.08-1.06-.14-1.55-.33-.23-.08-.45-.15-.45-.45,0-.02-.03-.07-.04-.07-.24.08-.32-.2-.51-.24-.2-.05-.28-.2-.29-.41-.02-.41-.19-.73-.52-.98-.19-.14-.36-.73-.27-.91Zm-.25-1.13c.08-.02.14.03.15.11.03.22.16.45-.06.73-.05-.26-.09-.48-.13-.69-.01-.06-.04-.13.04-.15Zm.27-2.39c.14-.01.28-.05.41-.1.76-.3,1.57-.37,2.35-.57.08-.02.17-.03.15.11-.08.55-.03,1.11-.03,1.66,0,.18-.06.22-.22.25-.8.12-1.57.38-2.32.68-.23.09-.49.13-.73.19-.13,0-.18-.07-.22-.18-.08-.22-.17-.43-.26-.65-.24-.61.21-1.32.86-1.38Zm-1.38-1.41c.24-.68.46-1.36.86-1.97.06-.09.13-.18.1-.3-.39,0-.36.39-.56.6.05-.52.33-.78.84-.8.99-.05,1.98-.12,2.97-.21.21-.02.35.05.43.19.14.26.25.58.14.84-.27.62-.32,1.29-.51,1.93-.06.21-.14.24-.32.28-.5.1-1.01.06-1.5.17-.49.11-.98.24-1.47.36-.09.02-.18.07-.26,0-.34-.24-.49-.64-.72-.96-.02-.03.02-.1.03-.14Zm-1.05-1.03c.43-.36.86-.6,1.31-.9-.06.33-.34.43-.46.72-.02-.11-.02-.2-.04-.2-.07-.02-.09.05-.13.1-.16.2-.35.38-.69.29Zm-1.49-.1c-.23,0-.46-.07-.67-.16-.08-.03-.18-.1-.06-.2.18-.15.28-.36.47-.51.49-.4,1.04-.72,1.49-1.17.05-.05.17-.09.09-.18-.06-.07-.16-.02-.22.03-.11.09-.19.22-.31.28-.55.28-.97.69-1.35,1.16-.04.05-.09.11-.14.16-.04.04-.07.11-.25.11.82-1.22,1.8-2.13,3.19-2.66-.04.26-.08.43-.03.6.06.22.01.43-.08.64-.19.45-.42.88-.55,1.35-.09.33-.31.46-.61.49-.32.03-.65.04-.97.04Zm-8.55-.53c.24-.02.47,0,.66.16.17.14.22.29,0,.42.14.2.18.48.48.56.1.02.13.18.05.29-.1.13-.16,0-.22-.05-.35-.21-.74-.27-1.13-.19-.19.04-.24-.04-.22-.16.03-.29.09-.58.15-.87.02-.11.14-.15.24-.16Zm-.29,1.4c.1-.14.25-.17.41-.13.14.03.27.08.41.07.22-.03.34.09.41.28.03.08.11.17,0,.25-.09.07-.19.06-.27-.03-.19-.2-.3-.06-.4.1-.04.07-.06.15-.09.23-.21-.06-.29-.23-.4-.35-.1-.12-.17-.27-.07-.42Zm1.26-1.43c-.06.11-.12.07-.22.05-.19-.05-.36-.18-.57-.16-.08,0-.11-.03-.08-.14.09-.08.08-.33.26-.3.21.04.42.13.59.28.11.1.07.17.03.26Zm.66-.18c-.18-.04-.28-.21-.49-.14-.1.03-.15-.06-.06-.19.1-.15.29-.25.3-.46,0-.07.01-.16.11-.15.1,0,.1.1.13.17.09.26,0,.51,0,.78Zm.5,2.08c-.24.31-.43.63-.5,1.02-.02.15-.08.24-.24.16-.13-.06-.39,0-.33-.29.12-.55.2-1.11.19-1.67,0-.05.06-.1.09-.15.04-.1.16-.16.12-.31-.17.01-.33.03-.54.05.03-.12.05-.22.08-.32.05-.22.21-.35.41-.4.2-.05.3.13.41.25.08.08.12.19.14.3.07.38.13.76.2,1.13.02.08.01.15-.04.22Zm-.95,1.39c.06.04.11.09.18.11.22.09.34.27.38.49.35.04.81.46.87.82-.31-.29-.63-.51-.87-.82-.26-.11-.42-.33-.63-.49-.07-.05-.19-.13-.11-.21.11-.12.12.06.18.1Zm2.13-.62c-.02.11-.14.12-.24.15-.2.05-.39.22-.37.39.04.26-.11.44-.13.67-.02.16-.09.17-.24.08-.47-.27-.38-.72-.41-1.27.02-.2.24-.37.51-.54.26-.15.34.05.49.14.08.04.14.11.21.17.07.06.21.09.18.21Zm6.01,7.04c-.12.28-.15.3-.39.1-.33-.27-.67-.54-1.02-.83-.02.12.05.14.09.17.37.31.75.62,1.12.93.09.07.13.13.05.22-.09.1-.13,0-.19-.05-1.32-1.02-2.59-2.1-3.88-3.16-.56-.45-1.01-1-1.56-1.47-.4-.34-.58-.87-.79-1.35-.02-.04-.04-.08-.02-.11.19-.44.33-.91.69-1.25.05-.04.08-.08.14-.08.38,0,.75-.05,1.11.17,1.41.86,2.8,1.75,3.85,3.07.23.29.39.61.51.95.23.61.24,1.24.28,1.87-.15-.02-.22-.19-.37-.21.32.28.57.57.38,1.03ZM.44,10.77c.16-.17.32-.03.45.08.77.62,1.54,1.24,2.32,1.87.07.06.13.13.14.22,0,.07,0,.17.08.17.1,0,.12-.1.14-.18.07-.22.14-.45.18-.67.04-.26.24-.13.35-.14.16,0,.09.14.07.23-.09.42-.18.83-.28,1.28.11-.07.18-.15.3-.04.78.73,1.61,1.43,2.35,2.19.72.74,1.48,1.45,2.29,2.07.85.65,1.55,1.49,2.47,2.06.63.39,1.06,1.02,1.63,1.48.2.16.2.36.05.53-.16.19-.32.04-.44-.08-.38-.42-.84-.76-1.26-1.13-1.39-1.22-2.77-2.46-4.2-3.64-1.14-.94-2.21-1.96-3.31-2.94-1.03-.92-2.07-1.83-3.1-2.74-.05-.05-.1-.1-.15-.15-.11-.14-.24-.3-.09-.46Z"/>
</svg>