<?xml version="1.0" encoding="UTF-8"?>
<svg id="Layer_1" data-name="Layer 1" xmlns="http://www.w3.org/2000/svg" xmlns:xlink="http://www.w3.org/1999/xlink" viewBox="0 0 55.69 48.01">
  <defs>
    <style>
      .cls-1 {
        fill: url(#linear-gradient);
        fill-rule: evenodd;
        stroke-width: 0px;
      }
    </style>
    <linearGradient id="linear-gradient" x1="0" y1="24" x2="55.69" y2="24" gradientUnits="userSpaceOnUse">
      <stop offset="0" stop-color="#ff4308"/>
      <stop offset="1" stop-color="#fb8500"/>
    </linearGradient>
  </defs>
  <path class="cls-1" d="m9.12,4.8h11.85C10.82,7.71,3.31,16.87,2.9,27.84H.96c-.53,0-.96.43-.96.96v5.76c0,.53.43.96.96.96h5.76c.53,0,.96-.43.96-.96v-5.76c0-.53-.43-.96-.96-.96h-1.9c.48-11.74,9.77-21.23,21.44-22.03l-10.79,21.37c-.11.23-.13.49-.06.73l2.47,7.62h-.36c-.53,0-.96.43-.96.96s.43.96.96.96h2.64v1.92h-.96c-.53,0-.96.43-.96.96v6.72c0,.53.43.96.96.96h17.28c.53,0,.96-.43.96-.96v-6.72c0-.53-.43-.96-.96-.96h-.96v-1.92h2.64c.53,0,.96-.43.96-.96s-.43-.96-.96-.96h-.36l2.47-7.62c.08-.24.06-.5-.06-.73L29.43,5.81c11.66.8,20.95,10.29,21.44,22.03h-1.9c-.53,0-.96.43-.96.96v5.76c0,.53.43.96.96.96h5.76c.53,0,.96-.43.96-.96v-5.76c0-.53-.43-.96-.96-.96h-1.94c-.42-10.97-7.93-20.14-18.07-23.04h11.37v1.92c0,.53.43.96.96.96h5.76c.53,0,.96-.43.96-.96V.96c0-.53-.43-.96-.96-.96h-5.76c-.53,0-.96.43-.96.96v1.92H9.12V.96c0-.53-.43-.96-.96-.96H2.4c-.53,0-.96.43-.96.96v5.76c0,.53.43.96.96.96h5.76c.53,0,.96-.43.96-.96v-1.92Zm11.04,41.29v-4.8h15.36v4.8h-15.36Zm1.92-8.64v1.92h11.52v-1.92h-11.52Zm-4.73-9.75l2.54,7.83h15.89l2.54-7.83-9.53-18.86v17.21c1.66.43,2.88,1.93,2.88,3.72,0,2.12-1.72,3.84-3.84,3.84s-3.84-1.72-3.84-3.84c0-1.79,1.23-3.29,2.88-3.72V8.83s-9.53,18.86-9.53,18.86Zm-15.44,5.91v-3.84h3.84v3.84H1.92Zm48.01,0v-3.84h3.84v3.84h-3.84Zm-22.08-1.92c-1.06,0-1.92-.86-1.92-1.92s.86-1.92,1.92-1.92,1.92.86,1.92,1.92-.86,1.92-1.92,1.92ZM3.36,5.76V1.92h3.84v3.84h-3.84Zm44.65,0V1.92h3.84v3.84h-3.84Z"/>
</svg>