<?xml version="1.0" encoding="utf-8"?>
<!-- Generator: Adobe Illustrator 27.9.0, SVG Export Plug-In . SVG Version: 6.00 Build 0)  -->
<svg version="1.1" id="Layer_1" xmlns="http://www.w3.org/2000/svg" xmlns:xlink="http://www.w3.org/1999/xlink" x="0px" y="0px"
	 viewBox="0 0 48.3 30.9" style="enable-background:new 0 0 48.3 30.9;" xml:space="preserve">
<style type="text/css">
	.st0{fill:url(#SVGID_1_);}
	.st1{fill-rule:evenodd;clip-rule:evenodd;fill:url(#SVGID_00000116949971423009782290000012716724328643363989_);}
	.st2{fill-rule:evenodd;clip-rule:evenodd;fill:url(#SVGID_00000018940883591549784020000012670179177806478267_);}
	.st3{fill-rule:evenodd;clip-rule:evenodd;fill:url(#SVGID_00000129168799912616899310000006671001179283023519_);}
	.st4{fill-rule:evenodd;clip-rule:evenodd;fill:url(#SVGID_00000050632984353151668270000009019027688731013271_);}
	.st5{fill:url(#SVGID_00000029018594902613092470000008131558258986783125_);}
	.st6{fill:url(#SVGID_00000163769723399327505210000002764028129351535263_);}
	.st7{fill:url(#SVGID_00000086666086723066114350000009219379725550316423_);}
	.st8{fill:url(#SVGID_00000077315814336825090370000007471711119118644891_);}
</style>
<linearGradient id="SVGID_1_" gradientUnits="userSpaceOnUse" x1="11.4" y1="781.6" x2="35.57" y2="781.6" gradientTransform="matrix(1 0 0 1 0 -760)">
	<stop  offset="0" style="stop-color:#FF4308"/>
	<stop  offset="1" style="stop-color:#FB8500"/>
</linearGradient>
<path class="st0" d="M34.9,20.9H17.1V20c0-0.4-0.3-0.7-0.7-0.7h-2.2c-0.4,0-0.7,0.3-0.7,0.7v0.9h-1.4c-0.4,0-0.7,0.3-0.7,0.7
	s0.3,0.7,0.7,0.7h1.4v0.9c0,0.4,0.3,0.7,0.7,0.7h2.2c0.4,0,0.7-0.3,0.7-0.7v-0.9h17.8c0.4,0,0.7-0.3,0.7-0.7S35.3,20.9,34.9,20.9z
	 M15.7,22.5h-0.8v-1.8h0.8V22.5z"/>
<linearGradient id="SVGID_00000152961347144511328270000016024786797727843200_" gradientUnits="userSpaceOnUse" x1="0" y1="787.05" x2="7.58" y2="787.05" gradientTransform="matrix(1 0 0 1 0 -760)">
	<stop  offset="0" style="stop-color:#FF4308"/>
	<stop  offset="1" style="stop-color:#FB8500"/>
</linearGradient>
<path style="fill-rule:evenodd;clip-rule:evenodd;fill:url(#SVGID_00000152961347144511328270000016024786797727843200_);" d="
	M0,29.2c0,0.9,0.7,1.6,1.6,1.6h5.6c0.2,0,0.3-0.1,0.3-0.3c0-0.2-0.1-0.3-0.3-0.3H1.6c-0.6,0-1-0.5-1-1v-5.6c0-0.2-0.1-0.3-0.3-0.3
	S0,23.4,0,23.6l0,0C0,23.6,0,29.2,0,29.2z"/>
<linearGradient id="SVGID_00000175288520068412510670000010331903079109338531_" gradientUnits="userSpaceOnUse" x1="0" y1="763.7696" x2="7.59" y2="763.7696" gradientTransform="matrix(1 0 0 1 0 -760)">
	<stop  offset="0" style="stop-color:#FF4308"/>
	<stop  offset="1" style="stop-color:#FB8500"/>
</linearGradient>
<path style="fill-rule:evenodd;clip-rule:evenodd;fill:url(#SVGID_00000175288520068412510670000010331903079109338531_);" d="
	M0,7.3V1.6C0,0.7,0.7,0,1.6,0h5.6c0.2,0,0.3,0.1,0.3,0.3s0,0.3-0.2,0.3H1.6c-0.6,0-1,0.4-1,1v5.6c0,0.2-0.1,0.3-0.3,0.3
	C0.1,7.6,0,7.5,0,7.3L0,7.3z"/>
<linearGradient id="SVGID_00000124122454239766847630000015809231632062899378_" gradientUnits="userSpaceOnUse" x1="40.73" y1="763.75" x2="48.32" y2="763.75" gradientTransform="matrix(1 0 0 1 0 -760)">
	<stop  offset="0" style="stop-color:#FF4308"/>
	<stop  offset="1" style="stop-color:#FB8500"/>
</linearGradient>
<path style="fill-rule:evenodd;clip-rule:evenodd;fill:url(#SVGID_00000124122454239766847630000015809231632062899378_);" d="
	M48.3,1.6v5.6c0,0.2-0.1,0.3-0.3,0.3s-0.3-0.1-0.3-0.3V1.6c0-0.6-0.5-1-1-1H41c-0.2,0-0.3-0.1-0.3-0.3S40.9,0,41,0h5.6
	C47.6,0,48.3,0.7,48.3,1.6z"/>
<linearGradient id="SVGID_00000073693280221801216890000000792824187116599986_" gradientUnits="userSpaceOnUse" x1="40.74" y1="787.05" x2="48.32" y2="787.05" gradientTransform="matrix(1 0 0 1 0 -760)">
	<stop  offset="0" style="stop-color:#FF4308"/>
	<stop  offset="1" style="stop-color:#FB8500"/>
</linearGradient>
<path style="fill-rule:evenodd;clip-rule:evenodd;fill:url(#SVGID_00000073693280221801216890000000792824187116599986_);" d="
	M48.3,23.6c0-0.2-0.1-0.3-0.3-0.3s-0.3,0.1-0.3,0.3v5.6c0,0.5-0.5,1-1,1H41c-0.2,0-0.3,0.1-0.3,0.3c0,0.2,0.1,0.3,0.3,0.3h5.6
	c0.9,0,1.6-0.7,1.6-1.6C48.3,29.2,48.3,23.6,48.3,23.6z"/>
<g>
	
		<linearGradient id="SVGID_00000089575223268869326620000011943199330117080219_" gradientUnits="userSpaceOnUse" x1="15.2603" y1="11.1427" x2="31.0263" y2="11.1427">
		<stop  offset="0" style="stop-color:#FF4308"/>
		<stop  offset="1" style="stop-color:#FB8500"/>
	</linearGradient>
	<path style="fill:url(#SVGID_00000089575223268869326620000011943199330117080219_);" d="M15.4,16.3c-0.5,2.1,0.6-3.8,4.1-6.1
		c0,0,1.4-1.3,3.9-1.9c0,0,2.4-0.8,3.1-0.1c0,0,1.8,1.6-2.2,2.4c0,0,2.8-0.2,4.6-1C30.4,9,31.2,8.1,31,7.1c-0.1-0.3-0.3-0.6-0.6-0.8
		c-0.8-0.5-3-1.4-6.7-0.3C23.6,6,17,6.9,15.4,16.3z"/>
	
		<linearGradient id="SVGID_00000117652142136521337050000017704672550111557278_" gradientUnits="userSpaceOnUse" x1="23.2967" y1="14.6322" x2="32.8647" y2="14.6322">
		<stop  offset="0" style="stop-color:#FF4308"/>
		<stop  offset="1" style="stop-color:#FB8500"/>
	</linearGradient>
	<path style="fill:url(#SVGID_00000117652142136521337050000017704672550111557278_);" d="M32.9,17.6c0,0-5-0.1-7.2-3
		c0,0-1.4-1.9,1-3c0,0-3.8,0.6-3.3,2.1C23.3,13.7,23,18.2,32.9,17.6z"/>
	
		<linearGradient id="SVGID_00000036237174261836968070000012655964151188181138_" gradientUnits="userSpaceOnUse" x1="14.9344" y1="11.9143" x2="26.8033" y2="11.9143">
		<stop  offset="0" style="stop-color:#FF4308"/>
		<stop  offset="1" style="stop-color:#FB8500"/>
	</linearGradient>
	<path style="fill:url(#SVGID_00000036237174261836968070000012655964151188181138_);" d="M14.9,18.4c0,0,0.5-8.5,4.7-11.2
		c0,0,2.8-2.1,7.1-1.7C26.8,5.5,17.2,5.5,14.9,18.4z"/>
	
		<linearGradient id="SVGID_00000101078709967767242750000013850048051862288558_" gradientUnits="userSpaceOnUse" x1="18.8288" y1="12.4962" x2="33.3656" y2="12.4962">
		<stop  offset="0" style="stop-color:#FF4308"/>
		<stop  offset="1" style="stop-color:#FB8500"/>
	</linearGradient>
	<path style="fill:url(#SVGID_00000101078709967767242750000013850048051862288558_);" d="M33,17.8c-1,0.1-7,0.7-10.1-0.7
		c0,0,0,0,0,0c0,0-3.6-0.9-4-3.2l0,0c0,0,0-1.7,1.9-2.4l0,0c0,0,1.4-0.7,4.4-1l0,0c0,0,6.4-1.1,5.8-3.6c0,0,0,0,0,0
		c0,0,0.4,0.6,0.2,1.2l0,0c0,0-0.3,1.2-2.2,2.3l0,0c0,0-2.2,1.1-3.7,1.5c0,0-3,0.7-1.3,2.8l0,0c0,0,1.7,2.8,9,2.5
		c0,0,0.6,0.1,0.4,0.2C33.2,17.7,33.1,17.7,33,17.8z"/>
</g>
</svg>
