<?xml version="1.0" encoding="UTF-8"?>
<svg id="Layer_1" data-name="Layer 1" xmlns="http://www.w3.org/2000/svg" viewBox="0 0 46.43 46.43">
  <defs>
    <style>
      .cls-1 {
        fill: #c89aff;
      }

      .cls-1, .cls-2, .cls-3 {
        stroke-width: 0px;
      }

      .cls-2 {
        fill: #fff;
      }

      .cls-3 {
        fill: #301051;
      }
    </style>
  </defs>
  <circle class="cls-1" cx="23.22" cy="23.22" r="23.22"/>
  <path class="cls-3" d="m2.31,23.2c0-11.57,9.37-20.9,20.94-20.89,11.41,0,20.88,9.22,20.88,20.91,0,11.61-9.39,20.96-21.01,20.91-11.63-.05-20.84-9.51-20.81-20.93Zm13.18,3.16c.16,0,.3,0,.44,0,1.45.06,2.88.02,4.28-.43,1.76-.57,3.11-1.61,3.82-3.36.44-1.08.55-2.21.42-3.37-.24-2.1-1.28-3.64-3.2-4.56-1.13-.55-2.35-.76-3.59-.77-1.7,0-3.4.05-5.1.07-.23,0-.3.09-.3.31,0,5.98,0,11.97,0,17.95,0,.23.09.3.31.3.85,0,1.71,0,2.56,0,.35,0,.35,0,.35-.34,0-1.82,0-3.65,0-5.47,0-.1,0-.2,0-.32Zm13.29,6.13c.41,0,.83,0,1.24,0q.43,0,.43-.42c0-3.38,0-6.76,0-10.14,0-.53,0-.57.54-.62.93-.09,1.87-.13,2.8-.19.35-.02.35-.01.35-.35,0-.73,0-1.46,0-2.19,0-.33-.02-.35-.35-.35-1.41.01-2.81.19-4.18.53-.81.2-1.6.47-2.4.71-.17.05-.22.13-.2.33.06.6.11,1.21.12,1.81.01,2.54,0,5.07.01,7.61,0,.98,0,1.96,0,2.93,0,.31.03.34.34.34.43,0,.86,0,1.29,0Z"/>
  <path class="cls-2" d="m15.49,26.36c0,1.93,0,3.86,0,5.79,0,.34,0,.34-.35.34-.85,0-1.71,0-2.56,0-.22,0-.31-.06-.31-.3,0-5.98,0-11.97,0-17.95,0-.22.06-.31.3-.31,2.89.09,5.97-.58,8.69.7,3.02,1.32,3.93,5.03,2.78,7.93-1.33,3.41-5.31,4.01-8.54,3.79Zm.01-2.96c2.21.22,5.57.06,5.75-2.94.39-3.45-2.98-4.05-5.75-3.62v6.56Z"/>
  <path class="cls-2" d="m28.78,32.49c-.43,0-.86,0-1.29,0-.32,0-.34-.03-.34-.34,0-.98,0-1.96,0-2.93-.05-3.14.13-6.29-.13-9.42-.02-.19.03-.28.2-.33,2.13-.71,4.32-1.25,6.58-1.24.34,0,.35.01.35.35,0,.73,0,1.46,0,2.19,0,.34,0,.33-.35.35-.93.05-1.87.1-2.8.19-.55.05-.54.09-.54.62,0,3.38,0,6.76,0,10.14q0,.42-.43.42c-.41,0-.83,0-1.24,0Z"/>
  <path class="cls-3" d="m15.5,23.4v-6.56s.05-.03.07-.04c1.04-.05,2.09-.15,3.12.07,1.96.42,2.73,1.85,2.55,3.58-.16,1.54-.96,2.41-2.46,2.81-.76.21-2.71.22-3.29.13Z"/>
</svg>