<?xml version="1.0" encoding="UTF-8"?>
<svg id="Layer_1" data-name="Layer 1" xmlns="http://www.w3.org/2000/svg" viewBox="0 0 48.23 39.12">
  <defs>
    <style>
      .cls-1 {
        fill: #f80;
      }

      .cls-1, .cls-2 {
        stroke-width: 0px;
      }

      .cls-2 {
        fill: #214c93;
      }
    </style>
  </defs>
  <path class="cls-1" d="m14.48,23.88c-1.27,1.01-2.42,1.93-3.57,2.85-2.13,1.72-4.25,3.45-6.4,5.16-.99.79-2.39.77-3.37,0-.94-.74-1.49-2.27-.92-3.16.47-.75,1.21-1.36,1.91-1.92,5.08-4.04,10.18-8.04,15.27-12.06.41-.33.79-.7,1.18-1.05-.03-.07-.06-.14-.09-.2-.28-.02-.56-.06-.84-.06-2.65,0-5.3,0-7.95-.01-.41,0-.85-.04-1.24-.16-1.03-.32-1.63-1.03-1.65-1.86-.03-1.09.45-1.9,1.54-2.27.78-.26,1.63-.47,2.44-.48,5.4-.04,10.8-.02,16.2-.03.63,0,1.27-.1,2.02-.17-.16-.24-.21-.4-.33-.5-1.86-1.51-3.72-3.01-5.58-4.51-.7-.56-.83-1.13-.41-1.94.79-1.53,2.58-1.98,3.96-.94,4.07,3.09,8.1,6.22,12.18,9.3,1.08.81,2.36,1.36,3.41,2.2,4.28,3.37,6.39,7.78,5.89,13.26-.28,3.03-1.6,5.66-3.63,7.94-2.88,3.24-6.53,5.09-10.75,5.67-5.04.7-9.64-.53-13.63-3.77-2.89-2.34-4.68-5.35-5.38-9.01-.13-.69-.17-1.41-.28-2.27Zm16.69-10.19c-3.19-.1-6.17,1.28-8.16,3.79-1.74,2.19-2.31,4.7-1.6,7.44,1.1,4.26,5.07,6.91,9.46,7.01,3.22.07,6.02-1.06,8.29-3.43,2.77-2.9,3.06-7.39.63-10.57-2.17-2.85-5.08-4.18-8.62-4.24Z"/>
  <path class="cls-2" d="m31.52,28.55c-3.72-.06-6.69-2.81-6.55-6.24.1-2.44,1.41-4.15,3.57-5.21,2.82-1.39,6.53-.58,8.39,1.82,2.67,3.44.83,8.28-3.58,9.38-.59.15-1.22.17-1.83.26Z"/>
</svg>