<?xml version="1.0" encoding="UTF-8"?>
<svg id="Layer_1" data-name="Layer 1" xmlns="http://www.w3.org/2000/svg" viewBox="0 0 46.43 46.43">
  <defs>
    <style>
      .cls-1, .cls-2, .cls-3 {
        stroke-width: 0px;
      }

      .cls-2 {
        fill: #c89aff;
      }

      .cls-3 {
        fill: #210c33;
      }
    </style>
  </defs>
  <circle class="cls-2" cx="23.22" cy="23.22" r="23.22"/>
  <path class="cls-3" d="m43.39,23.48c.16,10.65-8.89,20.06-20.11,20.09-11.3.03-20.4-9.5-20.25-20.5C3.18,12.33,12.31,3.06,23.44,3.16c10.78.09,20.23,9.27,19.95,20.32ZM9.18,31.86c.95,0,1.77.03,2.59-.02.21-.02.51-.28.59-.49.45-1.21.86-2.43,1.24-3.66.14-.47.36-.66.87-.65,1.45.03,2.91.04,4.36,0,.54-.01.78.19.94.68.38,1.2.78,2.4,1.21,3.58.08.23.36.54.56.55.92.06,1.85.03,2.87.03-.11-.34-.19-.59-.28-.84-.74-2.18-1.5-4.35-2.23-6.53-1.04-3.06-2.06-6.13-3.1-9.19-.09-.27-.33-.69-.52-.7-1.19-.06-2.39-.03-3.34-.03-1.94,5.84-3.82,11.49-5.76,17.29Zm27-2.78c-1.27.16-2.45.44-3.63.44-2.15,0-3.48-1.44-3.42-3.59,1.91,0,3.83.04,5.75,0,2.52-.06,2.23.02,2.19-2.29-.04-2.07-.97-3.77-2.96-4.54-2.15-.83-4.28-.63-6.07.98-1.78,1.6-2.22,3.73-2.08,5.99.13,2.08.77,3.97,2.68,5.09,2.27,1.32,4.68,1.11,7.08.37.19-.06.43-.32.45-.51.05-.67.02-1.35.02-1.94Z"/>
  <path class="cls-2" d="m9.18,31.86c1.93-5.8,3.81-11.46,5.76-17.29.95,0,2.15-.03,3.34.03.19.01.43.43.52.7,1.05,3.06,2.07,6.13,3.1,9.19.74,2.18,1.49,4.35,2.23,6.53.09.25.17.5.28.84-1.02,0-1.95.03-2.87-.03-.2-.01-.48-.32-.56-.55-.44-1.18-.84-2.38-1.21-3.58-.15-.49-.4-.69-.94-.68-1.45.04-2.91.03-4.36,0-.51-.01-.72.18-.87.65-.38,1.23-.79,2.45-1.24,3.66-.08.22-.38.48-.59.49-.82.06-1.64.02-2.59.02Zm5.3-7.42h4.36c-.74-2.39-1.46-4.72-2.23-7.21-.75,2.52-1.43,4.84-2.13,7.21Z"/>
  <path class="cls-2" d="m36.18,29.08c0,.59.03,1.27-.02,1.94-.01.19-.26.45-.45.51-2.4.74-4.81.95-7.08-.37-1.91-1.12-2.56-3.01-2.68-5.09-.14-2.27.3-4.4,2.08-5.99,1.79-1.61,3.92-1.81,6.07-.98,1.99.77,2.93,2.46,2.96,4.54.04,2.3.33,2.22-2.19,2.29-1.92.05-3.83,0-5.75,0-.06,2.15,1.27,3.6,3.42,3.59,1.18,0,2.36-.28,3.63-.44Zm-7.05-5.22c1.31,0,2.51.02,3.71-.01.43-.01,1.22-.14,1.23-.26.04-.51-.1-1.06-.28-1.56-.09-.26-.35-.49-.59-.66-.81-.58-1.71-.6-2.57-.2-1.05.49-1.4,1.46-1.5,2.69Z"/>
  <path class="cls-1" d="m14.48,24.44c.7-2.37,1.39-4.69,2.13-7.21.77,2.49,1.49,4.82,2.23,7.21h-4.36Z"/>
  <path class="cls-1" d="m29.13,23.87c.1-1.23.45-2.19,1.5-2.69.86-.4,1.76-.38,2.57.2.24.17.5.4.59.66.17.5.32,1.05.28,1.56,0,.12-.8.24-1.23.26-1.2.03-2.4.01-3.71.01Z"/>
</svg>