<?xml version="1.0" encoding="UTF-8"?>
<svg id="Layer_1" data-name="Layer 1" xmlns="http://www.w3.org/2000/svg" viewBox="0 0 40.64 43.24">
  <defs>
    <style>
      .cls-1 {
        fill: #36687e;
      }

      .cls-1, .cls-2, .cls-3, .cls-4, .cls-5, .cls-6, .cls-7, .cls-8, .cls-9, .cls-10, .cls-11, .cls-12, .cls-13 {
        stroke-width: 0px;
      }

      .cls-2 {
        fill: #fefefe;
      }

      .cls-3 {
        fill: #fdfefe;
      }

      .cls-4 {
        fill: #336278;
      }

      .cls-5 {
        fill: #38a3cb;
      }

      .cls-6 {
        fill: #3e6e83;
      }

      .cls-7 {
        fill: #379fc5;
      }

      .cls-8 {
        fill: #315e73;
      }

      .cls-9 {
        fill: #7fc4dd;
      }

      .cls-10 {
        fill: #315f74;
      }

      .cls-11 {
        fill: #3c6c82;
      }

      .cls-12 {
        fill: #39a4cb;
      }

      .cls-13 {
        fill: #336277;
      }
    </style>
  </defs>
  <path class="cls-1" d="m5.33,43.22h-.14c-.53-.23-1.2-.16-1.53-.81-.19-.37-.37-.72-.37-1.14,0-2.95-.06-5.9.03-8.85-.02-.18.01-.36.15-.46,1.01-.72,1.97-1.51,3.22-1.8,9.67-.23,19.38,0,29.06-.08,1.5,0,1.52-.02,1.52-1.54,0-6.79,0-13.57,0-20.36,0-.49-.11-1.01.22-1.46.73-.45,1.52-.22,2.3-.23.57.09.77.43.77,1.01-.01,11.68-.01,23.35,0,35.03,0,.51-.16.65-.65.64-1.44-.03-2.88-.01-4.32-.01-10.08.07-20.24-.14-30.27.07Z"/>
  <path class="cls-9" d="m6.51,30.39c-1.02.62-2.04,1.25-3.06,1.87-.31.74-2.72,2.15-3.45,2.03V3.89c.49-.84,1.42-1.1,2.16-1.61.95-.65,1.96-1.2,2.95-1.78.43-.25.89-.46,1.42-.37.07.05.12.12.16.2.19.46.12.95.12,1.42,0,8.05.01,16.1,0,24.15,0,1.2.24,2.38.14,3.59-.03.37-.05.72-.44.91Z"/>
  <path class="cls-4" d="m39.77,6.78c.29,0,.58,0,.86,0,0,11.96,0,23.92.01,35.87,0,.49-.09.61-.59.59-1.49-.04-2.98-.02-4.47-.02-.1-.05-.1-.1,0-.14,1.37,0,2.74-.02,4.1,0,.57.01.81-.15.81-.77-.01-11.56-.02-23.13,0-34.69,0-.59-.33-.71-.74-.85Z"/>
  <path class="cls-7" d="m6.38.13c0-.05,0-.09-.04-.13h29.68s.02.09.03.13c-.14.28-.41.3-.67.32-.29.02-.57.02-.86.02-8.85,0-17.69,0-26.54,0-.51,0-1.07.13-1.5-.3-.04,0-.07-.01-.1-.04Z"/>
  <path class="cls-10" d="m35.59,43.08s0,.1,0,.14h-14.98c-.1-.05-.1-.1,0-.14h14.98Z"/>
  <path class="cls-8" d="m5.33,43.22c.25-.2.55-.14.83-.14,2.32,0,4.63,0,6.95,0,.1.05.1.1,0,.14h-7.78Z"/>
  <path class="cls-13" d="m13.11,43.22s0-.1,0-.14c2.5,0,5,0,7.49,0,0,.05,0,.1,0,.14h-7.49Z"/>
  <path class="cls-12" d="m6.48.17c1.39,0,2.78-.02,4.17-.02,8.47,0,16.93-.01,25.4-.02,1.04.35,1.54.98,1.56,2.04.03,1.52.02,3.05.03,4.57,0,2.42-.02,4.85-.02,7.27,0,5.11,0,10.22,0,15.34q0,1.03-1.01,1.04c-10.03,0-20.06,0-30.1.01.19-.69.12-1.39.09-2.08-.23-5.13-.06-10.27-.09-15.4-.03-4.25-.02-8.5-.03-12.74Z"/>
  <path class="cls-2" d="m16.89,33.35c.81-.19,1.15.17,1.35.94.42,1.62.92,3.22,1.43,4.81.17.53.04.63-.49.66-.71.04-1.15-.13-1.19-.91-.03-.79-.9-.4-1.4-.51-.5-.07-.72.14-.82.63-.14.7-.87,1.03-1.54.77-.26-.1-.15-.27-.11-.41.53-1.89,1.06-3.78,1.62-5.66.2-.67.79-.18,1.16-.32Z"/>
  <path class="cls-2" d="m29.26,39.74c-.54.13-.86-.14-.91-.77-.04-.57-.4-.63-.89-.65-.79-.03-1.41.03-1.47,1.03-.03.38-1.99.79-1.54-.06.52-1.84,1.06-3.68,1.57-5.53.09-.31.25-.39.56-.42,1.66-.12,1.65-.13,2.13,1.46.41,1.38.83,2.75,1.24,4.12q.25.81-.69.8Z"/>
  <path class="cls-3" d="m19.3,33.43c1.44-.24,1.61-.23,2.1,1.01.21.48.42.96.7,1.58.35-.81.64-1.47.93-2.14.19-.42,1.28-.76,1.65-.51.23.16.03.29-.04.42-.78,1.7-2.16,3.26-1.76,5.26.1.61-.2.73-.73.7-.48-.03-.99.09-.88-.69.35-2.15-1.12-3.76-1.98-5.62Z"/>
  <path class="cls-2" d="m26.21,15.1c-.67,2.52-1.37,5.04-2,7.58-.18.73-.45,1.05-1.24.97-.78-.08-1.58-.04-2.37-.01-.46.02-.66-.15-.78-.61-.8-3.14-1.63-6.27-2.46-9.4-.07-.25-.07-.52-.35-.82,0,3.39-.01,6.73.02,10.11,0,.55-.13.77-.72.73-.79-.05-1.58-.03-2.38,0-.41.01-.53-.13-.53-.54.01-5.26.01-10.51,0-15.77,0-.39.11-.55.53-.55,1.42.02,2.83.03,4.25-.01.52-.02.58.29.67.65,1.09,4.32,2.11,8.48,3.23,12.82,1.23-4.27,2.27-8.5,3.41-12.78.13-.49.31-.71.86-.69,1.27.05,2.54.03,3.82,0,.4,0,.55.12.55.53-.01,5.28-.01,10.56,0,15.84,0,.37-.12.51-.5.5-.94-.02-1.87-.04-2.81,0-.52.02-.64-.17-.64-.66.02-3.26,0-6.47,0-9.73-.28.23-.27.48-.28.73-.01.4.09.83-.29,1.13Z"/>
  <path class="cls-5" d="m26.21,15.1c.03-.39.12-.77.29-1.13.16.18.16.39.16.61,0,2.87,0,5.74,0,8.61,0,.07-.03.13-.14.2v-2.77c0-1.34,0-2.68,0-4.02,0-.52.08-1.06-.3-1.5Z"/>
  <path class="cls-11" d="m16.81,34.68c.4.82.53,1.5.62,2.16.08.55-.42.27-.67.31-.26.05-.56.05-.45-.39.16-.62.3-1.25.49-2.09Z"/>
  <path class="cls-6" d="m27.27,34.71c.17.69.34,1.38.5,2.07.03.13.1.33-.09.35-.3.04-.62.03-.93,0-.2-.02-.15-.2-.12-.34.16-.7.33-1.39.5-2.08.05,0,.1,0,.14.01Z"/>
</svg>