<?xml version="1.0" encoding="UTF-8"?>
<svg id="Layer_1" data-name="Layer 1" xmlns="http://www.w3.org/2000/svg" viewBox="0 0 42.35 44.06">
  <defs>
    <style>
      .cls-1, .cls-2, .cls-3 {
        stroke-width: 0px;
      }

      .cls-2 {
        fill: #3e3e3c;
      }

      .cls-3 {
        fill: #3f3f3d;
      }
    </style>
  </defs>
  <path class="cls-3" d="m0,34.01h1.36q.23,0,.23.24v2.59c0,.21,0,.42.03.63.05.34.21.52.54.59.13.03.28.06.41.06.55.01,1.09.04,1.64-.02.5-.06.69-.25.75-.75.02-.26.02-.52.02-.78v-2.34c0-.19.06-.23.23-.23.38.01.77,0,1.15,0,.15,0,.19.05.19.19v3.52c0,.15-.02.28-.05.41-.09.54-.42.87-.94,1.03-.47.13-.94.18-1.43.19-.87.03-1.74.04-2.6-.09-.16-.02-.31-.06-.47-.1-.54-.17-.86-.52-.95-1.09-.01-.06,0-.15-.08-.19v-3.89.02Z"/>
  <path class="cls-2" d="m42.34,39.3h-4.93c-.16,0-.21-.05-.21-.21v-4.9c0-.15.04-.2.2-.2.38,0,.77.01,1.15,0,.19,0,.23.06.23.24v3.69c0,.1.05.15.16.15h3.42v1.23h-.01Z"/>
  <path class="cls-2" d="m36.59,15.58c0,7.05-4.66,13.23-11.46,15.05-4.4,1.17-8.58.51-12.39-2-3.74-2.46-6.04-5.94-6.78-10.35-.85-5.04.47-9.5,3.9-13.31,2.11-2.34,4.74-3.89,7.81-4.56,5.24-1.14,9.91.09,13.9,3.69,2.68,2.42,4.26,5.49,4.84,9.07.12.8.19,1.6.19,2.4h0ZM21.06.7c-.54,0-1.16.03-1.77.11-3.07.4-5.77,1.64-8.04,3.74-2.98,2.76-4.59,6.19-4.83,10.25-.12,2.19.22,4.3,1.04,6.34,2.56,6.45,9.17,10.24,16.01,9.15,3.72-.59,6.79-2.37,9.13-5.32,3.04-3.81,3.98-8.14,2.9-12.88-1.52-6.67-7.51-11.4-14.44-11.4Z"/>
  <path class="cls-2" d="m9.17,35.38c-.06.09-.04.18-.04.25v3.42q0,.26-.25.26h-1.08c-.15,0-.21-.04-.21-.2v-4.9c0-.15.04-.2.2-.2h2.03c.13,0,.2.06.27.16.91,1.2,1.83,2.4,2.75,3.61.04.05.08.17.16.15.07-.03.03-.13.03-.21v-3.44q0-.24.25-.25h1.1c.15,0,.2.05.2.2v4.9c0,.16-.06.21-.21.2h-1.94c-.13,0-.23-.04-.31-.16-.92-1.2-1.85-2.4-2.79-3.6-.04-.05-.08-.1-.15-.18h-.01Z"/>
  <path class="cls-3" d="m20.99,37.22c.16.04.27.07.38.11.26.08.41.25.46.51.08.45.06.89.06,1.34,0,.09-.05.13-.15.13h-1.23c-.11,0-.16-.05-.16-.16,0-.21,0-.42-.02-.63-.04-.39-.2-.55-.6-.62-.27-.05-.54-.05-.81-.05h-1.53c-.18,0-.22.06-.22.23v1.04c0,.15-.04.22-.2.21h-1.16c-.15,0-.19-.06-.19-.2v-4.9c0-.16.05-.2.21-.2h4.2c.3,0,.6.03.89.1.53.12.86.44.93.98.05.38.06.77,0,1.14-.06.45-.29.78-.74.92-.03,0-.05.02-.12.06v-.02Zm-2.47-.54h.51c.29,0,.59,0,.88-.06.26-.05.36-.17.39-.44.01-.12.01-.25.01-.37,0-.45-.13-.59-.58-.62-.8-.06-1.6-.02-2.39-.03-.12,0-.17.05-.17.17v1.14c0,.15.05.2.2.2h1.16v.02Z"/>
  <path class="cls-3" d="m25.78,39.3h-2.63q-.24,0-.24-.24v-4.83c0-.18.05-.24.23-.24h5.22c.18,0,.24.05.23.23-.01.24-.01.49,0,.73,0,.17-.05.22-.22.22h-3.58c-.22,0-.33.11-.33.32v.45c0,.09.04.15.13.15h3.52q.25,0,.25.25v.62q0,.24-.24.24h-3.37c-.21,0-.31.1-.31.3v.45c0,.13.05.18.18.18h3.81c.23,0,.24,0,.24.24v.7q0,.26-.25.26h-2.65Z"/>
  <path class="cls-3" d="m32.82,34.01h.74c.16,0,.24.05.31.19.81,1.51,1.63,3.02,2.44,4.52.08.15.16.29.24.44.06.1.06.17-.08.16h-1.38c-.1,0-.17-.04-.21-.13-.11-.23-.24-.45-.34-.67-.05-.1-.11-.15-.24-.15h-2.98c-.12,0-.2.05-.25.16-.1.23-.23.44-.33.66-.05.1-.11.13-.22.13h-1.33c-.16,0-.17-.05-.1-.18.89-1.66,1.78-3.33,2.67-4.98.05-.09.11-.13.23-.13h.84Zm-.03,3.24h.91c.15,0,.18-.05.1-.18-.31-.6-.61-1.2-.92-1.8-.02-.04-.03-.1-.08-.1-.06,0-.07.06-.1.11-.3.6-.61,1.2-.91,1.8-.07.15-.02.18.11.17h.89Z"/>
  <path class="cls-2" d="m16.94,43.21c.04-.07.03-.15.03-.21v-1.8c0-.16.04-.23.21-.22h.5c.13,0,.18.05.18.18v2.68c0,.11-.05.18-.17.18h-1.04c-.11,0-.18-.07-.24-.15-.49-.63-.98-1.26-1.47-1.9-.03-.04-.06-.07-.08-.11-.05-.06-.09-.05-.1.03v1.91c0,.17-.06.24-.23.23-.16-.01-.32,0-.48,0-.11,0-.18-.04-.18-.17v-2.71c0-.11.05-.16.17-.16h1.08c.12,0,.18.07.24.16.48.62.95,1.24,1.43,1.87.05.07.09.15.19.21h-.03Z"/>
  <path class="cls-2" d="m25.37,41.81c-.06.09-.04.17-.04.23v1.76c0,.16-.05.23-.22.22h-.5c-.11,0-.17-.05-.17-.17v-2.68c0-.12.06-.17.18-.17h1.04c.11,0,.18.06.24.15.48.63.96,1.26,1.44,1.89.04.05.06.16.15.12.06-.02.03-.11.03-.18v-1.74c0-.22.02-.23.23-.24h.46c.12,0,.19.04.18.18v2.68c0,.11-.04.17-.16.17h-1.06c-.11,0-.17-.07-.23-.15-.49-.63-.97-1.26-1.47-1.9-.04-.05-.08-.1-.13-.17h.04Z"/>
  <path class="cls-2" d="m20.43,40.97c.39,0,.78,0,1.15.07.56.1.66.37.67.87,0,.1-.04.15-.15.15h-.45c-.16,0-.28,0-.31-.2-.02-.1-.12-.15-.22-.16-.48-.07-.94-.07-1.42,0-.19.03-.29.16-.31.33-.04.31-.04.62,0,.93.03.21.12.31.34.34.48.07.95.07,1.42,0,.1-.01.2-.06.24-.18.06-.18.01-.25-.17-.25h-.76c-.15,0-.22-.04-.21-.2.01-.46-.03-.38.38-.38h1.41c.16,0,.23.04.22.21-.01.27,0,.54-.03.81-.04.32-.22.53-.52.62-.24.07-.49.09-.74.1-.54.02-1.07.03-1.61-.04-.6-.08-.84-.34-.89-.94-.03-.37-.03-.75,0-1.13.05-.54.29-.81.83-.89.36-.06.74-.05,1.09-.06h.01Z"/>
  <path class="cls-2" d="m11.7,44.02h-1.45c-.15,0-.21-.05-.21-.21v-2.63c0-.16.06-.2.21-.2h2.84c.15,0,.21.04.21.21-.01.54.07.47-.47.47h-1.64q-.26,0-.26.25t.25.26h1.75c.23,0,.25.01.25.24,0,.47.01.39-.39.39h-1.59q-.26,0-.26.27v.02q0,.24.23.24h1.94c.24,0,.25,0,.25.25,0,.51.05.45-.44.45h-1.22Z"/>
  <path class="cls-2" d="m30.75,44.02h-1.43c-.16,0-.22-.05-.22-.22v-2.59c0-.17.06-.21.22-.21h2.79c.18,0,.23.06.22.23-.01.51.06.44-.45.44h-1.68c-.17,0-.23.05-.23.22q0,.3.3.3h1.69c.17,0,.23.05.23.22q0,.41-.41.41h-1.59c-.07,0-.19-.03-.21.07-.03.13-.04.27.02.39.03.06.11.03.19.04h1.94c.23,0,.24.01.24.24,0,.51.05.45-.46.46h-1.18.02Z"/>
  <path class="cls-2" d="m23.79,42.53v1.28c0,.16-.06.21-.21.21h-.51c-.11,0-.18-.04-.18-.17v-2.68c0-.12.05-.17.17-.17h.55c.13,0,.18.06.18.19v1.34Z"/>
  <path class="cls-1" d="m21.06.7c6.91,0,12.91,4.73,14.44,11.4,1.08,4.74.13,9.08-2.9,12.88-2.34,2.93-5.41,4.73-9.13,5.32-6.85,1.08-13.45-2.7-16.01-9.15-.81-2.03-1.16-4.16-1.04-6.34.24-4.06,1.84-7.48,4.83-10.25,2.27-2.1,4.96-3.34,8.04-3.74.62-.08,1.24-.12,1.77-.11Zm-.8,5.54c-.08-.02-.17.02-.24.04-1.08.31-2.08.76-3.04,1.35-1.43.89-2.65,2.02-3.8,3.24-.86.91-1.67,1.88-2.26,2.98-.66,1.24-1.09,2.55-1.04,3.98,0,.09,0,.19.05.28.03-.04.05-.07.06-.1.63-1.28,1.44-2.44,2.39-3.49.5-.56,1.02-1.1,1.66-1.49.26-.16.54-.28.85-.32.46-.06.85.19.92.6.02.11.02.24.02.35v6.88c0,.11,0,.24-.01.35-.04.34-.24.57-.56.64-.15.03-.29.02-.44.02-.18,0-.34-.08-.52-.07h0c.04.09.11.18.18.26.52.64,1.14,1.15,1.84,1.58,1.48.88,3.11,1.35,4.81,1.6.22.03.35-.02.5-.19.61-.67,1.24-1.34,1.87-2,.11-.12.18-.13.31-.02.52.46,1.06.9,1.59,1.36q.35.3.75.04c2.2-1.46,3.77-3.46,4.97-5.77.02-.04.06-.07.02-.12-.07.01-.1.07-.15.11-.41.41-.85.82-1.33,1.16-.42.3-.86.57-1.38.68-.34.07-.67.07-.98-.13-.11-.07-.18-.18-.18-.32,0-.41-.03-.84-.03-1.25-.04-2.24-.08-4.48-.04-6.73,0-.6.13-1.13.49-1.63.67-.94,1.38-1.87,2.11-2.76.04-.05.1-.09.11-.18-.02,0-.03-.01-.05-.01-.04,0-.09.01-.13.02-2.15.5-3.99,1.5-5.53,3.08-.09.09-.16.1-.27.04-.51-.28-1.07-.32-1.63-.31,0,.06.02.07.05.09.69.57,1.05,1.3,1.04,2.2v7.25c0,.1,0,.2-.09.27-.49.38-.99.74-1.59.94-.29.1-.58.15-.88.08-.63-.12-1.06-.63-1.06-1.27v-8.92c0-.1-.03-.13-.13-.1-.5.17-.79.02-.95-.48-.15-.45-.17-.91-.09-1.38.12-.68.5-1.22.96-1.71.26-.27.56-.49.85-.72h-.01Z"/>
</svg>