<?xml version="1.0" encoding="UTF-8"?>
<svg id="Layer_1" data-name="Layer 1" xmlns="http://www.w3.org/2000/svg" viewBox="0 0 44.26 44.2">
  <defs>
    <style>
      .cls-1 {
        fill: #282827;
      }

      .cls-1, .cls-2 {
        stroke-width: 0px;
      }

      .cls-2 {
        fill: #019ee8;
      }
    </style>
  </defs>
  <path class="cls-2" d="m44.26,22.01c-.2,12.54-9.77,22.19-22.21,22.19C10.08,44.2-.02,34.84,0,22.19.02,9.73,9.48.09,21.98,0c12.45-.09,21.98,9.49,22.29,22.01Zm-42.81-.46c-.24,11.11,8.36,20.68,19.81,21.17,11.64.5,21.01-8.65,21.48-19.82.47-11.22-8.21-20.88-19.92-21.43-5.97-.28-11.16,1.85-15.35,6.06-3.81,3.83-5.83,8.56-6.01,14.01Z"/>
  <path class="cls-1" d="m1.45,21.55c.18-5.45,2.2-10.18,6.01-14.01C11.65,3.33,16.85,1.2,22.82,1.48c11.71.55,20.39,10.2,19.92,21.43-.46,11.17-9.83,20.32-21.48,19.82-11.45-.49-20.06-10.06-19.81-21.17Zm20.1,14.02c3.39-.05,6.39-1.17,8.84-3.52,3.06-2.92,4.45-6.52,3.98-10.77-.13-1.16-.09-2.22.43-3.35,1.02-2.23,1.92-4.54,2-7.04.06-1.74-.79-2.48-2.53-2.24-2.03.28-3.78,1.23-5.39,2.46-.4.3-.65.35-1.12.11-4.09-2.11-8.23-2.18-12.34-.06-.46.24-.78.29-1.24,0-1.01-.64-2.11-1.14-3.28-1.44-2.14-.55-3.07.24-2.86,2.42.16,1.6.61,3.14,1.18,4.63.22.58.24,1.08.03,1.67-.8,2.27-.9,4.6-.46,6.95.53,2.8,2.05,5.14,4.08,6.95,2.39,2.13,5.37,3.28,8.68,3.23Z"/>
  <path class="cls-2" d="m21.55,35.58c-3.31.04-6.29-1.1-8.68-3.23-2.03-1.81-3.54-4.15-4.08-6.95-.45-2.36-.34-4.68.46-6.95.21-.59.19-1.09-.03-1.67-.57-1.49-1.02-3.03-1.18-4.63-.21-2.18.72-2.97,2.86-2.42,1.17.3,2.26.8,3.28,1.44.46.29.78.24,1.24,0,4.12-2.12,8.25-2.04,12.34.06.47.24.72.2,1.12-.11,1.6-1.22,3.35-2.17,5.39-2.46,1.74-.24,2.59.5,2.53,2.24-.08,2.51-.99,4.81-2,7.04-.51,1.12-.56,2.19-.43,3.35.47,4.25-.92,7.84-3.98,10.77-2.46,2.35-5.45,3.47-8.84,3.52Zm11.28-19.23c.36.17.25.84.67.78.45-.07.56-.6.73-.99.56-1.33,1.09-2.68,1.39-4.1.14-.64.5-1.42-.13-1.9-.6-.46-1.3-.02-1.92.22-1.96.79-3.44,2.22-4.94,3.64-.22.21-.39.69-.75.52-.32-.15-.37-.61-.44-.97-.06-.31.12-.68-.3-.89-1.04-.51-2.06-1.04-3.3-1.2.08.18.11.29.17.39,1.01,1.91,1.36,3.99,1.65,6.1.04.29.04.58-.3.67-.36.09-.49-.15-.53-.47-.04-.38-.14-.77-.21-1.14-.28-1.54-.45-3.12-1.22-4.53-.32-.59-.65-1.26-1.45-1.24-.75.02-1.08.64-1.38,1.22-1.01,1.93-1.32,4.04-1.52,6.17-.05.54.17.6.62.59,4.37-.08,8.73.06,13.03,1.19,0-1.39-1.53-2.8.14-4.07Zm-10.73,5.16c-.83,0-1.66.03-2.49,0-.61-.03-.77.2-.77.8-.03,2.12.11,4.23.47,6.32.27,1.57.57,3.15,1.44,4.52.78,1.22,1.6,1.19,2.33-.04.17-.29.37-.56.51-.86.82-1.74,1-3.64,1.28-5.51.08-.57-.05-.69-.58-.68-1.32.03-2.64.01-3.96.02-.29,0-.55,0-.56-.42-.01-.45.29-.39.56-.39.71,0,1.41,0,2.12,0,.79,0,1.81.3,2.32-.08.55-.41.13-1.49.19-2.27.02-.28-.02-.55.42-.54.39.01.55.15.53.55-.03.55,0,1.11-.05,1.66-.03.42.11.54.52.5,1.89-.2,3.8-.34,5.61-.98.37-.13.86-.26.88-.71.02-.52-.5-.65-.91-.75-1.33-.35-2.68-.59-4.06-.72-1.93-.17-3.86-.48-5.81-.43Zm-3.77,11.99c.01-.52-.4-.86-.53-1.32-.92-3.24-1.28-6.55-1.24-9.91,0-.43-.09-.6-.57-.54-1.5.17-3,.32-4.44.76-.54.17-1.35.25-1.33.92.02.64.8.74,1.35.9,1.16.33,2.34.5,3.53.64.37.04.8,0,.75.56-.05.62-.5.28-.77.26-1.59-.14-3.15-.46-4.7-.89.28,3.65,4.76,8.31,7.95,8.63Zm5.47.26c4.25-.81,8.31-4.44,8.86-8.98-2.05.76-4.18.99-6.32,1.13-.43.03-.63.11-.67.62-.08,1.06-.24,2.12-.42,3.16-.25,1.41-.69,2.78-1.45,4.08Zm-13.4-13.28c1.33-.44,2.63-.67,3.93-.85.73-.1,1.62.05,2.14-.33.6-.43.34-1.42.46-2.16.28-1.84.73-3.63,1.45-5.42-3.97.97-7.54,4.88-7.98,8.75Zm-.61-9.58c-.56,0-.7.28-.71.71-.03,1.4.48,2.69.86,4,.08.28.22.51.54.08.56-.76,1.19-1.46,1.81-2.17.21-.24.46-.56.22-.8-.79-.81-1.69-1.5-2.72-1.82Z"/>
  <path class="cls-1" d="m32.83,16.35c-1.67,1.27-.13,2.68-.14,4.07-4.3-1.13-8.66-1.27-13.03-1.19-.45,0-.67-.05-.62-.59.2-2.13.51-4.24,1.52-6.17.3-.57.63-1.2,1.38-1.22.8-.02,1.13.65,1.45,1.24.77,1.41.94,2.99,1.22,4.53.07.37.17.76.21,1.14.03.32.17.56.53.47.35-.08.34-.37.3-.67-.29-2.1-.64-4.19-1.65-6.1-.05-.1-.09-.21-.17-.39,1.24.16,2.27.69,3.3,1.2.42.21.24.58.3.89.07.36.12.82.44.97.37.17.53-.31.75-.52,1.49-1.42,2.98-2.86,4.94-3.64.62-.25,1.32-.68,1.92-.22.64.49.27,1.26.13,1.9-.31,1.42-.84,2.76-1.39,4.1-.16.39-.28.92-.73.99-.42.06-.31-.61-.67-.78Z"/>
  <path class="cls-1" d="m22.1,21.5c1.95-.05,3.87.26,5.81.43,1.39.12,2.73.36,4.06.72.41.11.93.23.91.75-.02.45-.51.58-.88.71-1.81.64-3.72.78-5.61.98-.41.04-.55-.08-.52-.5.04-.55.02-1.11.05-1.66.02-.4-.14-.54-.53-.55-.44-.01-.39.26-.42.54-.06.78.36,1.86-.19,2.27-.51.38-1.53.08-2.32.08-.71,0-1.41,0-2.12,0-.27,0-.57-.06-.56.39,0,.41.26.42.56.42,1.32,0,2.64,0,3.96-.02.53-.01.66.11.58.68-.28,1.87-.45,3.77-1.28,5.51-.14.3-.34.57-.51.86-.72,1.23-1.55,1.26-2.33.04-.88-1.37-1.17-2.95-1.44-4.52-.36-2.09-.5-4.2-.47-6.32,0-.59.16-.83.77-.8.83.04,1.66,0,2.49,0Z"/>
  <path class="cls-1" d="m18.33,33.49c-3.18-.32-7.67-4.98-7.95-8.63,1.56.43,3.11.75,4.7.89.27.02.72.36.77-.26.05-.55-.38-.51-.75-.56-1.19-.14-2.38-.31-3.53-.64-.55-.16-1.34-.26-1.35-.9-.02-.67.79-.75,1.33-.92,1.45-.45,2.95-.59,4.44-.76.48-.05.57.11.57.54-.04,3.36.32,6.67,1.24,9.91.13.47.54.81.53,1.32Z"/>
  <path class="cls-1" d="m23.8,33.75c.75-1.3,1.19-2.66,1.45-4.08.19-1.05.35-2.1.42-3.16.04-.51.24-.59.67-.62,2.14-.14,4.26-.37,6.32-1.13-.54,4.54-4.6,8.17-8.86,8.98Z"/>
  <path class="cls-1" d="m10.4,20.46c.44-3.87,4.01-7.78,7.98-8.75-.72,1.79-1.17,3.58-1.45,5.42-.11.74.15,1.73-.46,2.16-.52.38-1.42.23-2.14.33-1.31.18-2.6.41-3.93.85Z"/>
  <path class="cls-1" d="m9.79,10.88c1.03.32,1.93,1,2.72,1.82.24.24-.01.55-.22.8-.62.71-1.25,1.42-1.81,2.17-.31.43-.45.2-.54-.08-.38-1.31-.89-2.6-.86-4,0-.43.15-.71.71-.71Z"/>
</svg>